<?xml version="1.0" encoding="UTF-8" standalone="no"?>
<!-- Generator: Adobe Illustrator 13.0.2, SVG Export Plug-In . SVG Version: 6.00 Build 14948)  -->
<svg
   xmlns:dc="http://purl.org/dc/elements/1.1/"
   xmlns:cc="http://creativecommons.org/ns#"
   xmlns:rdf="http://www.w3.org/1999/02/22-rdf-syntax-ns#"
   xmlns:svg="http://www.w3.org/2000/svg"
   xmlns="http://www.w3.org/2000/svg"
   xmlns:sodipodi="http://sodipodi.sourceforge.net/DTD/sodipodi-0.dtd"
   xmlns:inkscape="http://www.inkscape.org/namespaces/inkscape"
   version="1.1"
   id="Layer_1"
   x="0px"
   y="0px"
   width="60px"
   height="500px"
   viewBox="0 0 60 500"
   enable-background="new 0 0 60 500"
   xml:space="preserve"
   sodipodi:version="0.32"
   inkscape:version="0.46"
   sodipodi:docname="graf_bar_portrait.svg"
   inkscape:output_extension="org.inkscape.output.svg.inkscape"><metadata
   id="metadata42"><rdf:RDF><cc:Work
       rdf:about=""><dc:format>image/svg+xml</dc:format><dc:type
         rdf:resource="http://purl.org/dc/dcmitype/StillImage" /></cc:Work></rdf:RDF></metadata><defs
   id="defs40"><inkscape:perspective
     sodipodi:type="inkscape:persp3d"
     inkscape:vp_x="0 : 189 : 1"
     inkscape:vp_y="0 : 1000 : 0"
     inkscape:vp_z="60 : 189 : 1"
     inkscape:persp3d-origin="30 : 126 : 1"
     id="perspective44" /></defs><sodipodi:namedview
   inkscape:window-height="1134"
   inkscape:window-width="1600"
   inkscape:pageshadow="2"
   inkscape:pageopacity="0.0"
   guidetolerance="10.0"
   gridtolerance="10.0"
   objecttolerance="10.0"
   borderopacity="1.0"
   bordercolor="#666666"
   pagecolor="#ffffff"
   id="base"
   showgrid="false"
   inkscape:zoom="1.2222222"
   inkscape:cx="30"
   inkscape:cy="189"
   inkscape:window-x="0"
   inkscape:window-y="26"
   inkscape:current-layer="Layer_1" />
<linearGradient
   id="SVGID_1_"
   gradientUnits="userSpaceOnUse"
   x1="454.4473"
   y1="793.0391"
   x2="454.4473"
   y2="749.4355"
   gradientTransform="matrix(0,1.633318,1.7995679,0,-1358.083,-572.91369)">
    <stop
   offset="0"
   style="stop-color:#BBBCBB"
   id="stop4" />
    <stop
   offset="0.1302"
   style="stop-color:#A5A6A6"
   id="stop6" />
    <stop
   offset="0.3961"
   style="stop-color:#7C7E81"
   id="stop8" />
    <stop
   offset="0.6388"
   style="stop-color:#5F6165"
   id="stop10" />
    <stop
   offset="0.8481"
   style="stop-color:#4D4F55"
   id="stop12" />
    <stop
   offset="1"
   style="stop-color:#47494F"
   id="stop14" />
</linearGradient>
<path
   d="M 3.7279234,500 C -3.6517988,500 -9.6825397,494.52353 -9.6825397,487.83979 L -9.6825397,-149.16296 C -9.6825397,-155.86419 -3.6517988,-161.32317 3.7279234,-161.32317 L 55.372755,-161.32317 C 62.739253,-161.32317 68.783218,-155.84671 68.783218,-149.16296 L 68.783218,487.83979 C 68.783218,494.54103 62.752477,500 55.372755,500 L 3.7279234,500 z"
   id="path16"
   style="fill:url(#SVGID_1_)" />
<path
   d="M -5.2520611,487.82229 L -5.2520611,-149.16296 C -5.2520611,-155.86419 0.7786798,-161.32317 8.1584022,-161.32317 L 3.7279234,-161.32317 C -3.6517988,-161.34066 -9.6825397,-155.86419 -9.6825397,-149.16296 L -9.6825397,487.83979 C -9.6825397,494.54103 -3.6517988,500 3.7279234,500 L 8.1584022,500 C 0.7786798,500 -5.2520611,494.52353 -5.2520611,487.82229 z"
   id="path18"
   style="fill:#1a1a1a" />
<path
   d="M 63.598898,-149.19795 L 63.598898,487.80479 C 63.598898,494.48853 57.568156,499.965 50.188434,499.965 L 54.618913,499.965 C 61.998635,499.965 68.029376,494.48853 68.029376,487.80479 L 68.029376,-149.19795 C 68.029376,-155.89919 61.998635,-161.37566 54.618913,-161.37566 L 50.188434,-161.37566 C 57.568156,-161.37566 63.598898,-155.89919 63.598898,-149.19795 z"
   id="path20"
   style="fill:#b3b3b3" />
<linearGradient
   id="SVGID_2_"
   gradientUnits="userSpaceOnUse"
   x1="4.3955"
   y1="56.9551"
   x2="30.5527"
   y2="56.9551"
   gradientTransform="matrix(1.7995679,0,0,-1.633318,14.687869,262.35425)">
    <stop
   offset="0"
   style="stop-color:#5E5E5E"
   id="stop23" />
    <stop
   offset="0.0153"
   style="stop-color:#626262"
   id="stop25" />
    <stop
   offset="0.2477"
   style="stop-color:#919191"
   id="stop27" />
    <stop
   offset="0.4693"
   style="stop-color:#B5B5B5"
   id="stop29" />
    <stop
   offset="0.6746"
   style="stop-color:#D0D0D0"
   id="stop31" />
    <stop
   offset="0.8577"
   style="stop-color:#E0E0E0"
   id="stop33" />
    <stop
   offset="1"
   style="stop-color:#E6E6E6"
   id="stop35" />
</linearGradient>
<path
   d="M 56.25885,-161.34066 L 22.600439,-161.34066 C 29.966936,-161.34066 36.010903,-155.86419 36.010903,-149.18045 L 36.010903,487.82229 C 36.010903,494.52353 29.980161,499.9825 22.600439,499.9825 L 56.272077,499.9825 C 63.638574,499.9825 69.68254,494.50603 69.68254,487.82229 L 69.68254,-149.16296 C 69.669315,-155.86419 63.638574,-161.34066 56.25885,-161.34066 z"
   id="path37"
   style="fill:url(#SVGID_2_)" />
</svg>