<?xml version="1.0" encoding="utf-8"?>
<!-- Generator: Adobe Illustrator 15.0.0, SVG Export Plug-In . SVG Version: 6.00 Build 0)  -->
<!DOCTYPE svg PUBLIC "-//W3C//DTD SVG 1.1//EN" "http://www.w3.org/Graphics/SVG/1.1/DTD/svg11.dtd">
<svg version="1.1" id="Layer_1" xmlns="http://www.w3.org/2000/svg" xmlns:xlink="http://www.w3.org/1999/xlink" x="0px" y="0px"
	 width="36px" height="36px" viewBox="0 0 36 36" enable-background="new 0 0 36 36" xml:space="preserve">
<g id="Layer_3">
	<rect fill="none" width="36" height="36"/>
	
		<linearGradient id="SVGID_1_" gradientUnits="userSpaceOnUse" x1="191.3398" y1="1671.5752" x2="158.5" y2="1671.5752" gradientTransform="matrix(1 0 0 1 -156.9199 -1653.5703)">
		<stop  offset="0" style="stop-color:#BBBBBB"/>
		<stop  offset="0.0024" style="stop-color:#B9B9B9"/>
		<stop  offset="0.0546" style="stop-color:#969595"/>
		<stop  offset="0.1117" style="stop-color:#777676"/>
		<stop  offset="0.1764" style="stop-color:#5D5A5B"/>
		<stop  offset="0.2496" style="stop-color:#474445"/>
		<stop  offset="0.335" style="stop-color:#373334"/>
		<stop  offset="0.4406" style="stop-color:#2B2829"/>
		<stop  offset="0.5887" style="stop-color:#252122"/>
		<stop  offset="1" style="stop-color:#231F20"/>
	</linearGradient>
	<path fill="url(#SVGID_1_)" d="M7.19,34.79c-3.09,0-5.61-2.53-5.61-5.61V6.83c0-3.09,2.52-5.61,5.61-5.61h21.621
		c3.09,0,5.609,2.53,5.609,5.61v22.35c0,3.09-2.529,5.61-5.609,5.61H7.19z"/>
	<path d="M7.19,35.79v-1v-1h21.621c2.529,0,4.609-2.08,4.609-4.61l0,0V6.83c0-2.53-2.08-4.61-4.609-4.61l0,0H7.19
		c-2.53,0-4.61,2.08-4.61,4.61l0,0v22.35c0,2.53,2.08,4.61,4.61,4.61l0,0v1V35.79c-3.65,0-6.61-2.97-6.61-6.61l0,0V6.83
		c0-3.64,2.97-6.61,6.61-6.61l0,0h21.621c3.641,0,6.609,2.97,6.609,6.61l0,0v22.35c0,3.641-2.97,6.61-6.609,6.61l0,0H7.19
		L7.19,35.79z"/>
	
		<linearGradient id="SVGID_2_" gradientUnits="userSpaceOnUse" x1="117.3799" y1="1628.0098" x2="148.3398" y2="1628.0098" gradientTransform="matrix(1 0 0 1 -114.9199 -1613.5703)">
		<stop  offset="0" style="stop-color:#000000"/>
		<stop  offset="0.6538" style="stop-color:#1C1C1C"/>
		<stop  offset="1" style="stop-color:#757575"/>
	</linearGradient>
	<path fill="url(#SVGID_2_)" d="M28.13,1.93H7.75c-2.91,0-5.29,2.38-5.29,5.29v19.73c2.66-3.11,12.05-12.38,30.96-14.39V7.21
		C33.42,4.31,31.04,1.93,28.13,1.93z"/>
</g>
<g id="Layer_3_1_">
	<path fill="none" d="M-8.438,19.875"/>
	<g>
		<path fill-rule="evenodd" clip-rule="evenodd" fill="#FFFFFF" d="M11.697,30.692c-0.107,0-0.21-0.016-0.308-0.046
			c-0.298-0.033-1.041-0.18-1.31-0.849c-0.349-0.866,0.4-1.814,1.03-2.474l0.347-0.651c0.387-0.565,0.726-1.155,0.764-1.323
			c0.007-0.033,0.021-0.08,0.034-0.112c0.191-0.47,0.84-2.035,1.171-2.475c0.031-0.057,0.284-0.481,0.548-0.919
			c-0.47-0.056-0.989-0.34-1.58-0.863c-0.051-0.046-0.094-0.099-0.128-0.158c-0.166-0.293-0.332-0.78-0.33-1.334
			c-0.034,0.003-0.068,0.004-0.103,0.004c-0.433,0-0.888-0.224-1.39-0.685c-0.015-0.007-0.612-0.465-0.73-1.278
			c-0.043-0.295-0.018-0.591,0.074-0.886C9.23,16.522,8.78,16.226,8.362,15.74c-0.086-0.111-0.392-0.556-0.268-1.26
			c0.146-0.838,0.837-1.661,2.054-2.446c0.056-0.033,2.187-1.227,4.855-3.47c2.784-2.338,4.62-3.249,6.551-3.249
			c0.813,0,1.689,0.164,2.754,0.515c2.782,0.918,2.794,2.687,2.536,4.734c-0.127,0.998-0.21,1.25-0.433,1.927
			c-0.247,0.754-0.662,2.015-1.542,5.52c-0.061,0.242-0.114,0.657-0.171,1.095c-0.213,1.658-0.433,2.971-1.16,3.54
			c-0.446,0.353-1.104,0.531-1.953,0.531c0,0,0,0-0.001,0c-0.616,0-1.342-0.096-2.155-0.285c-0.313-0.072-0.598-0.109-0.847-0.109
			c-0.167,0-0.29,0.018-0.371,0.035c-0.724,1.355-0.975,1.743-1.079,1.876c-1.452,2.131-1.916,2.71-2.126,2.9
			c-0.06,0.066-0.277,0.327-0.449,0.729c-0.02,0.046-0.044,0.089-0.074,0.128C13.979,29.124,12.7,30.692,11.697,30.692z
			 M20.26,20.104c0.035-0.192,0.064-0.382,0.088-0.56c-0.097,0.145-0.207,0.316-0.332,0.522
			C20.101,20.082,20.184,20.095,20.26,20.104z"/>
		<path d="M21.554,5.934c0.804,0,1.626,0.176,2.56,0.484c2.367,0.781,2.363,2.102,2.115,4.067c-0.254,2-0.293,0.73-1.961,7.374
			c-0.243,0.972-0.293,3.657-1.111,4.298c-0.182,0.144-0.609,0.4-1.572,0.4c-0.508,0-1.166-0.072-2.015-0.27
			c-0.403-0.094-0.729-0.126-0.987-0.126c-0.57,0-0.808,0.157-0.808,0.157l1.213-1.828c0,0,1.115,0.262,1.585,0.262
			c0.13,0,0.211-0.021,0.203-0.072c0,0,0.552-2.456,0.009-2.456c-0.226,0-0.641,0.424-1.363,1.626c0,0-1.359,1.731-1.528,2.243
			c0,0-1.085,2.056-1.257,2.227c0,0-1.852,2.719-2.055,2.818c0,0-0.339,0.342-0.594,0.939c0,0-1.49,1.993-2.29,1.993
			c-0.062,0-0.119-0.012-0.171-0.037c0,0-2.114-0.072,0.09-2.343l0.388-0.729c0,0,0.74-1.066,0.824-1.493
			c0,0,0.784-1.926,1.092-2.335c0,0,0.939-1.576,1.16-1.901c0,0,0.515-0.553,0.158-0.843l-0.549,0.483c0,0-0.122,0.358-0.547,0.358
			c-0.288,0-0.715-0.165-1.337-0.717c0,0-0.762-1.348,0.369-2.451c0,0-0.109-0.095-0.267-0.095c-0.131,0-0.296,0.066-0.458,0.308
			c-0.007,0.017-0.131,0.594-0.615,0.594c-0.232,0-0.546-0.132-0.97-0.521c0,0-1.148-0.841-0.125-2.188c0,0,0.327-0.3,0.136-0.712
			c0,0-0.414,0.622-0.773,0.622c-0.011,0-0.021,0-0.031-0.001c-0.366-0.038-0.786-0.21-1.239-0.735c0,0-0.875-1.149,1.652-2.781
			c0,0,2.165-1.202,4.918-3.516C18.057,6.808,19.761,5.934,21.554,5.934 M21.554,4.694c-2.093,0-4.042,0.952-6.949,3.395
			c-2.617,2.199-4.703,3.37-4.724,3.382c-0.023,0.013-0.047,0.027-0.069,0.042c-1.368,0.883-2.151,1.845-2.329,2.86
			c-0.13,0.743,0.102,1.372,0.362,1.714c0.015,0.02,0.031,0.039,0.047,0.058c0.362,0.42,0.76,0.729,1.189,0.925
			C9.066,17.275,9.077,17.46,9.1,17.619c0.134,0.923,0.727,1.488,0.96,1.678c0.445,0.401,0.876,0.652,1.304,0.758
			c0.072,0.44,0.217,0.816,0.361,1.072c0.067,0.119,0.154,0.227,0.256,0.317c0.368,0.326,0.72,0.574,1.06,0.744
			c-0.069,0.115-0.126,0.21-0.164,0.273c-0.355,0.524-0.898,1.803-1.198,2.541c-0.025,0.061-0.044,0.123-0.06,0.188
			c-0.071,0.189-0.389,0.712-0.635,1.066c-0.028,0.04-0.053,0.081-0.076,0.124l-0.308,0.578c-0.736,0.782-1.566,1.906-1.097,3.07
			c0.32,0.795,1.111,1.149,1.77,1.229c0.136,0.036,0.277,0.055,0.422,0.055c1.174,0,2.434-1.354,3.283-2.491
			c0.059-0.079,0.109-0.165,0.147-0.256c0.113-0.265,0.251-0.45,0.313-0.526c0.29-0.274,0.81-0.949,2.185-2.968
			c0.132-0.171,0.376-0.556,0.975-1.669c0.197,0.002,0.429,0.033,0.688,0.094c0.859,0.199,1.632,0.301,2.295,0.301
			c0.993,0,1.78-0.224,2.341-0.666c0.98-0.769,1.197-2.456,1.389-3.946c0.052-0.401,0.105-0.817,0.157-1.024
			c0.874-3.482,1.284-4.73,1.529-5.477c0.241-0.732,0.331-1.037,0.459-2.042c0.213-1.692,0.536-4.249-2.957-5.401
			C23.373,4.868,22.436,4.694,21.554,4.694L21.554,4.694z"/>
	</g>
</g>
</svg>
