<?xml version="1.0" encoding="utf-8"?>
<!-- Generator: Adobe Illustrator 15.0.0, SVG Export Plug-In . SVG Version: 6.00 Build 0)  -->
<!DOCTYPE svg PUBLIC "-//W3C//DTD SVG 1.1//EN" "http://www.w3.org/Graphics/SVG/1.1/DTD/svg11.dtd">
<svg version="1.1" id="Layer_1" xmlns="http://www.w3.org/2000/svg" xmlns:xlink="http://www.w3.org/1999/xlink" x="0px" y="0px"
	 width="36px" height="36px" viewBox="0 0 36 36" enable-background="new 0 0 36 36" xml:space="preserve">
<g id="Layer_3">
	<rect fill="none" width="36" height="36"/>
	
		<linearGradient id="SVGID_1_" gradientUnits="userSpaceOnUse" x1="191.3398" y1="1671.5752" x2="158.5" y2="1671.5752" gradientTransform="matrix(1 0 0 1 -156.9199 -1653.5703)">
		<stop  offset="0" style="stop-color:#BBBBBB"/>
		<stop  offset="0.0024" style="stop-color:#B9B9B9"/>
		<stop  offset="0.0546" style="stop-color:#969595"/>
		<stop  offset="0.1117" style="stop-color:#777676"/>
		<stop  offset="0.1764" style="stop-color:#5D5A5B"/>
		<stop  offset="0.2496" style="stop-color:#474445"/>
		<stop  offset="0.335" style="stop-color:#373334"/>
		<stop  offset="0.4406" style="stop-color:#2B2829"/>
		<stop  offset="0.5887" style="stop-color:#252122"/>
		<stop  offset="1" style="stop-color:#231F20"/>
	</linearGradient>
	<path fill="url(#SVGID_1_)" d="M7.19,34.79c-3.09,0-5.61-2.53-5.61-5.61V6.83c0-3.09,2.52-5.61,5.61-5.61h21.621
		c3.09,0,5.609,2.53,5.609,5.61v22.35c0,3.09-2.529,5.61-5.609,5.61H7.19z"/>
	<path d="M7.19,35.79v-1v-1h21.621c2.529,0,4.609-2.08,4.609-4.61l0,0V6.83c0-2.53-2.08-4.61-4.609-4.61l0,0H7.19
		c-2.53,0-4.61,2.08-4.61,4.61l0,0v22.35c0,2.53,2.08,4.61,4.61,4.61l0,0v1V35.79c-3.65,0-6.61-2.97-6.61-6.61l0,0V6.83
		c0-3.64,2.97-6.61,6.61-6.61l0,0h21.621c3.641,0,6.609,2.97,6.609,6.61l0,0v22.35c0,3.641-2.97,6.61-6.609,6.61l0,0H7.19
		L7.19,35.79z"/>
	
		<linearGradient id="SVGID_2_" gradientUnits="userSpaceOnUse" x1="117.3799" y1="1628.0098" x2="148.3398" y2="1628.0098" gradientTransform="matrix(1 0 0 1 -114.9199 -1613.5703)">
		<stop  offset="0" style="stop-color:#000000"/>
		<stop  offset="0.6538" style="stop-color:#1C1C1C"/>
		<stop  offset="1" style="stop-color:#757575"/>
	</linearGradient>
	<path fill="url(#SVGID_2_)" d="M28.13,1.93H7.75c-2.91,0-5.29,2.38-5.29,5.29v19.73c2.66-3.11,12.05-12.38,30.96-14.39V7.21
		C33.42,4.31,31.04,1.93,28.13,1.93z"/>
</g>
<g id="Layer_5">
	<g>
		<path d="M16.83,30.206c-0.851,0-1.622-0.47-2.014-1.226L5.861,11.683C5.405,10.801,5.57,9.737,6.272,9.036
			C6.604,8.704,9.752,5.794,18,5.794c7.891,0,10.936,1.941,11.466,2.331c0.894,0.653,1.183,1.848,0.688,2.839L21.199,28.95
			c-0.385,0.774-1.163,1.256-2.029,1.256H16.83z"/>
		<path fill="#FFFFFF" d="M16.83,29.072c-0.424,0-0.812-0.236-1.007-0.612L6.868,11.161c-0.227-0.438-0.144-0.974,0.206-1.323
			C7.192,9.719,10.077,6.928,18,6.928c7.693,0,10.501,1.896,10.795,2.111c0.445,0.326,0.592,0.926,0.346,1.42l-8.955,17.984
			c-0.191,0.386-0.586,0.629-1.016,0.629H16.83z"/>
		
			<linearGradient id="SVGID_3_" gradientUnits="userSpaceOnUse" x1="9.5542" y1="15.729" x2="29.1954" y2="19.5469" gradientTransform="matrix(1 0 0 -1 0.04 35.2148)">
			<stop  offset="0" style="stop-color:#DEDEDE"/>
			<stop  offset="0.0404" style="stop-color:#C5C5C5"/>
			<stop  offset="0.1854" style="stop-color:#727272"/>
			<stop  offset="0.3042" style="stop-color:#343434"/>
			<stop  offset="0.3909" style="stop-color:#0E0E0E"/>
			<stop  offset="0.4364" style="stop-color:#000000"/>
			<stop  offset="0.5212" style="stop-color:#000000"/>
			<stop  offset="0.6848" style="stop-color:#000000"/>
		</linearGradient>
		<path fill="url(#SVGID_3_)" d="M19.17,27.938h-2.34L7.875,10.64c0,0,2.581-2.578,10.125-2.578s10.125,1.892,10.125,1.892
			L19.17,27.938z"/>
		
			<linearGradient id="SVGID_4_" gradientUnits="userSpaceOnUse" x1="9.5542" y1="15.729" x2="29.1954" y2="19.5469" gradientTransform="matrix(1 0 0 -1 0.04 35.2148)">
			<stop  offset="0" style="stop-color:#DEDEDE"/>
			<stop  offset="0.0482" style="stop-color:#C5C5C5"/>
			<stop  offset="0.2215" style="stop-color:#727272"/>
			<stop  offset="0.3634" style="stop-color:#343434"/>
			<stop  offset="0.4669" style="stop-color:#0E0E0E"/>
			<stop  offset="0.5212" style="stop-color:#000000"/>
			<stop  offset="0.6848" style="stop-color:#000000"/>
		</linearGradient>
		<path fill="url(#SVGID_4_)" d="M19.17,27.938h-2.34L7.875,10.64c0,0,2.581-2.578,10.125-2.578s10.125,1.892,10.125,1.892
			L19.17,27.938z"/>
		
			<linearGradient id="SVGID_5_" gradientUnits="userSpaceOnUse" x1="9.5542" y1="15.729" x2="29.1954" y2="19.5469" gradientTransform="matrix(1 0 0 -1 0.04 35.2148)">
			<stop  offset="0" style="stop-color:#DEDEDE"/>
			<stop  offset="0.0404" style="stop-color:#C5C5C5"/>
			<stop  offset="0.1854" style="stop-color:#727272"/>
			<stop  offset="0.3042" style="stop-color:#343434"/>
			<stop  offset="0.3909" style="stop-color:#0E0E0E"/>
			<stop  offset="0.4364" style="stop-color:#000000"/>
			<stop  offset="0.5212" style="stop-color:#000000"/>
			<stop  offset="0.6848" style="stop-color:#000000"/>
		</linearGradient>
		<path fill="url(#SVGID_5_)" d="M19.17,27.938h-2.34L7.875,10.64c0,0,2.581-2.578,10.125-2.578s10.125,1.892,10.125,1.892
			L19.17,27.938z"/>
		
			<linearGradient id="SVGID_6_" gradientUnits="userSpaceOnUse" x1="7.835" y1="16.2695" x2="28.085" y2="16.2695" gradientTransform="matrix(1 0 0 -1 0.04 35.2148)">
			<stop  offset="0" style="stop-color:#DEDEDE"/>
			<stop  offset="0.0926" style="stop-color:#C5C5C5"/>
			<stop  offset="0.4249" style="stop-color:#727272"/>
			<stop  offset="0.6972" style="stop-color:#343434"/>
			<stop  offset="0.8958" style="stop-color:#0E0E0E"/>
			<stop  offset="1" style="stop-color:#000000"/>
		</linearGradient>
		<path fill="url(#SVGID_6_)" d="M19.17,27.938h-2.34L7.875,10.64c0,0,2.581,1.521,10.125,1.521s10.125-2.208,10.125-2.208
			L19.17,27.938z"/>
		
			<linearGradient id="SVGID_7_" gradientUnits="userSpaceOnUse" x1="13.7305" y1="10.5737" x2="22.893" y2="12.3547" gradientTransform="matrix(1 0 0 -1 0.04 35.2148)">
			<stop  offset="0" style="stop-color:#DEDEDE"/>
			<stop  offset="0.0499" style="stop-color:#C5C5C5"/>
			<stop  offset="0.2292" style="stop-color:#727272"/>
			<stop  offset="0.3761" style="stop-color:#343434"/>
			<stop  offset="0.4832" style="stop-color:#0E0E0E"/>
			<stop  offset="0.5394" style="stop-color:#000000"/>
		</linearGradient>
		<polygon fill="url(#SVGID_7_)" points="19.17,27.938 16.83,27.938 12.956,20.453 22.586,21.077 		"/>
		
			<linearGradient id="SVGID_8_" gradientUnits="userSpaceOnUse" x1="12.6685" y1="14.7705" x2="24.4239" y2="20.2522" gradientTransform="matrix(1 0 0 -1 0.04 35.2148)">
			<stop  offset="0" style="stop-color:#DEDEDE"/>
			<stop  offset="0.1241" style="stop-color:#9F9F9F"/>
			<stop  offset="0.2708" style="stop-color:#5C5C5C"/>
			<stop  offset="0.394" style="stop-color:#2A2A2A"/>
			<stop  offset="0.4871" style="stop-color:#0B0B0B"/>
			<stop  offset="0.5394" style="stop-color:#000000"/>
			<stop  offset="0.6485" style="stop-color:#000000"/>
		</linearGradient>
		<path fill="url(#SVGID_8_)" d="M22.443,21.361c0,0-1.502,1.611-4.503,1.611c-3.002,0-4.705-1.979-4.705-1.979l-2.728-5.269
			l14.521,0.449L22.443,21.361z"/>
		<g>
			
				<linearGradient id="SVGID_9_" gradientUnits="userSpaceOnUse" x1="10.4268" y1="19.0176" x2="27.3235" y2="26.8967" gradientTransform="matrix(1 0 0 -1 0.04 35.2148)">
				<stop  offset="0.0182" style="stop-color:#DEDEDE"/>
				<stop  offset="0.0709" style="stop-color:#C5C5C5"/>
				<stop  offset="0.2603" style="stop-color:#727272"/>
				<stop  offset="0.4154" style="stop-color:#343434"/>
				<stop  offset="0.5285" style="stop-color:#0E0E0E"/>
				<stop  offset="0.5879" style="stop-color:#000000"/>
			</linearGradient>
			<path fill="url(#SVGID_9_)" d="M25.027,16.174c0,0-4.025,1.826-7.027,1.826s-7.492-2.275-7.492-2.275L7.875,10.64
				c0,0,2.581,1.521,10.125,1.521s10.125-2.208,10.125-2.208L25.027,16.174z"/>
		</g>
	</g>
</g>
</svg>
