<?xml version="1.0" encoding="utf-8"?>
<!-- Generator: Adobe Illustrator 15.0.0, SVG Export Plug-In . SVG Version: 6.00 Build 0)  -->
<!DOCTYPE svg PUBLIC "-//W3C//DTD SVG 1.1//EN" "http://www.w3.org/Graphics/SVG/1.1/DTD/svg11.dtd">
<svg version="1.1" id="Layer_1" xmlns="http://www.w3.org/2000/svg" xmlns:xlink="http://www.w3.org/1999/xlink" x="0px" y="0px"
	 width="36px" height="36px" viewBox="0 0 36 36" enable-background="new 0 0 36 36" xml:space="preserve">
<linearGradient id="SVGID_1_" gradientUnits="userSpaceOnUse" x1="-1415.9688" y1="2334.6367" x2="-1382.3887" y2="2334.6367" gradientTransform="matrix(-1 0 0 1 -1381.1787 -2316.6318)">
	<stop  offset="0" style="stop-color:#FFFFFF"/>
	<stop  offset="0.1383" style="stop-color:#FAFAFA"/>
	<stop  offset="0.3118" style="stop-color:#EAEAEA"/>
	<stop  offset="0.5042" style="stop-color:#D1D1D1"/>
	<stop  offset="0.7101" style="stop-color:#ADADAD"/>
	<stop  offset="0.9247" style="stop-color:#7F7F7F"/>
	<stop  offset="1" style="stop-color:#6E6E6E"/>
</linearGradient>
<path fill="url(#SVGID_1_)" d="M29.05,0.84c3.15,0,5.74,2.58,5.74,5.74v22.85c0,3.15-2.58,5.74-5.74,5.74H6.95
	c-3.15,0-5.74-2.58-5.74-5.74V6.58c0-3.15,2.58-5.74,5.74-5.74H29.05z"/>
<g id="Layer_5">
	<g>
		<path d="M16.83,30.206c-0.851,0-1.622-0.47-2.014-1.226L5.861,11.683C5.405,10.801,5.57,9.737,6.272,9.036
			C6.604,8.704,9.752,5.794,18,5.794c7.891,0,10.936,1.941,11.466,2.331c0.894,0.653,1.183,1.848,0.688,2.839L21.199,28.95
			c-0.385,0.774-1.163,1.256-2.029,1.256H16.83z"/>
		<path fill="#FFFFFF" d="M16.83,29.072c-0.424,0-0.812-0.236-1.007-0.612L6.868,11.161c-0.227-0.438-0.144-0.974,0.206-1.323
			C7.192,9.719,10.077,6.928,18,6.928c7.693,0,10.501,1.896,10.795,2.111c0.445,0.326,0.592,0.926,0.346,1.42l-8.955,17.984
			c-0.191,0.386-0.586,0.629-1.016,0.629H16.83z"/>
		
			<linearGradient id="SVGID_2_" gradientUnits="userSpaceOnUse" x1="9.5542" y1="15.729" x2="29.1954" y2="19.5469" gradientTransform="matrix(1 0 0 -1 0.04 35.2148)">
			<stop  offset="0" style="stop-color:#DEDEDE"/>
			<stop  offset="0.0404" style="stop-color:#C5C5C5"/>
			<stop  offset="0.1854" style="stop-color:#727272"/>
			<stop  offset="0.3042" style="stop-color:#343434"/>
			<stop  offset="0.3909" style="stop-color:#0E0E0E"/>
			<stop  offset="0.4364" style="stop-color:#000000"/>
			<stop  offset="0.5212" style="stop-color:#000000"/>
			<stop  offset="0.6848" style="stop-color:#000000"/>
		</linearGradient>
		<path fill="url(#SVGID_2_)" d="M19.17,27.938h-2.34L7.875,10.64c0,0,2.581-2.578,10.125-2.578s10.125,1.892,10.125,1.892
			L19.17,27.938z"/>
		
			<linearGradient id="SVGID_3_" gradientUnits="userSpaceOnUse" x1="9.5542" y1="15.729" x2="29.1954" y2="19.5469" gradientTransform="matrix(1 0 0 -1 0.04 35.2148)">
			<stop  offset="0" style="stop-color:#DEDEDE"/>
			<stop  offset="0.0482" style="stop-color:#C5C5C5"/>
			<stop  offset="0.2215" style="stop-color:#727272"/>
			<stop  offset="0.3634" style="stop-color:#343434"/>
			<stop  offset="0.4669" style="stop-color:#0E0E0E"/>
			<stop  offset="0.5212" style="stop-color:#000000"/>
			<stop  offset="0.6848" style="stop-color:#000000"/>
		</linearGradient>
		<path fill="url(#SVGID_3_)" d="M19.17,27.938h-2.34L7.875,10.64c0,0,2.581-2.578,10.125-2.578s10.125,1.892,10.125,1.892
			L19.17,27.938z"/>
		
			<linearGradient id="SVGID_4_" gradientUnits="userSpaceOnUse" x1="9.5542" y1="15.729" x2="29.1954" y2="19.5469" gradientTransform="matrix(1 0 0 -1 0.04 35.2148)">
			<stop  offset="0" style="stop-color:#DEDEDE"/>
			<stop  offset="0.0404" style="stop-color:#C5C5C5"/>
			<stop  offset="0.1854" style="stop-color:#727272"/>
			<stop  offset="0.3042" style="stop-color:#343434"/>
			<stop  offset="0.3909" style="stop-color:#0E0E0E"/>
			<stop  offset="0.4364" style="stop-color:#000000"/>
			<stop  offset="0.5212" style="stop-color:#000000"/>
			<stop  offset="0.6848" style="stop-color:#000000"/>
		</linearGradient>
		<path fill="url(#SVGID_4_)" d="M19.17,27.938h-2.34L7.875,10.64c0,0,2.581-2.578,10.125-2.578s10.125,1.892,10.125,1.892
			L19.17,27.938z"/>
		
			<linearGradient id="SVGID_5_" gradientUnits="userSpaceOnUse" x1="7.835" y1="16.2695" x2="28.085" y2="16.2695" gradientTransform="matrix(1 0 0 -1 0.04 35.2148)">
			<stop  offset="0" style="stop-color:#DEDEDE"/>
			<stop  offset="0.0926" style="stop-color:#C5C5C5"/>
			<stop  offset="0.4249" style="stop-color:#727272"/>
			<stop  offset="0.6972" style="stop-color:#343434"/>
			<stop  offset="0.8958" style="stop-color:#0E0E0E"/>
			<stop  offset="1" style="stop-color:#000000"/>
		</linearGradient>
		<path fill="url(#SVGID_5_)" d="M19.17,27.938h-2.34L7.875,10.64c0,0,2.581,1.521,10.125,1.521s10.125-2.208,10.125-2.208
			L19.17,27.938z"/>
		
			<linearGradient id="SVGID_6_" gradientUnits="userSpaceOnUse" x1="13.7305" y1="10.5737" x2="22.893" y2="12.3547" gradientTransform="matrix(1 0 0 -1 0.04 35.2148)">
			<stop  offset="0" style="stop-color:#DEDEDE"/>
			<stop  offset="0.0499" style="stop-color:#C5C5C5"/>
			<stop  offset="0.2292" style="stop-color:#727272"/>
			<stop  offset="0.3761" style="stop-color:#343434"/>
			<stop  offset="0.4832" style="stop-color:#0E0E0E"/>
			<stop  offset="0.5394" style="stop-color:#000000"/>
		</linearGradient>
		<polygon fill="url(#SVGID_6_)" points="19.17,27.938 16.83,27.938 12.956,20.453 22.586,21.077 		"/>
		
			<linearGradient id="SVGID_7_" gradientUnits="userSpaceOnUse" x1="12.6685" y1="14.7705" x2="24.4239" y2="20.2522" gradientTransform="matrix(1 0 0 -1 0.04 35.2148)">
			<stop  offset="0" style="stop-color:#DEDEDE"/>
			<stop  offset="0.1241" style="stop-color:#9F9F9F"/>
			<stop  offset="0.2708" style="stop-color:#5C5C5C"/>
			<stop  offset="0.394" style="stop-color:#2A2A2A"/>
			<stop  offset="0.4871" style="stop-color:#0B0B0B"/>
			<stop  offset="0.5394" style="stop-color:#000000"/>
			<stop  offset="0.6485" style="stop-color:#000000"/>
		</linearGradient>
		<path fill="url(#SVGID_7_)" d="M22.443,21.361c0,0-1.502,1.611-4.503,1.611c-3.002,0-4.705-1.979-4.705-1.979l-2.728-5.269
			l14.521,0.449L22.443,21.361z"/>
		<g>
			
				<linearGradient id="SVGID_8_" gradientUnits="userSpaceOnUse" x1="10.4268" y1="19.0176" x2="27.3235" y2="26.8967" gradientTransform="matrix(1 0 0 -1 0.04 35.2148)">
				<stop  offset="0.0182" style="stop-color:#DEDEDE"/>
				<stop  offset="0.0709" style="stop-color:#C5C5C5"/>
				<stop  offset="0.2603" style="stop-color:#727272"/>
				<stop  offset="0.4154" style="stop-color:#343434"/>
				<stop  offset="0.5285" style="stop-color:#0E0E0E"/>
				<stop  offset="0.5879" style="stop-color:#000000"/>
			</linearGradient>
			<path fill="url(#SVGID_8_)" d="M25.027,16.174c0,0-4.025,1.826-7.027,1.826s-7.492-2.275-7.492-2.275L7.875,10.64
				c0,0,2.581,1.521,10.125,1.521s10.125-2.208,10.125-2.208L25.027,16.174z"/>
		</g>
	</g>
</g>
</svg>
