<?xml version="1.0" encoding="utf-8"?>
<!-- Generator: Adobe Illustrator 13.0.2, SVG Export Plug-In . SVG Version: 6.00 Build 14948)  -->
<!DOCTYPE svg PUBLIC "-//W3C//DTD SVG 1.1//EN" "http://www.w3.org/Graphics/SVG/1.1/DTD/svg11.dtd">
<svg version="1.1" id="Layer_1" xmlns="http://www.w3.org/2000/svg" xmlns:xlink="http://www.w3.org/1999/xlink" x="0px" y="0px"
	 width="36px" height="36px" viewBox="0 0 36 36" enable-background="new 0 0 36 36" xml:space="preserve">
<g>
	<g>
		
			<linearGradient id="SVGID_1_" gradientUnits="userSpaceOnUse" x1="431.9189" y1="-1200.9209" x2="399.0791" y2="-1200.9209" gradientTransform="matrix(1 0 0 -1 -397.5 -1183)">
			<stop  offset="0" style="stop-color:#BBBBBB"/>
			<stop  offset="2.400000e-03" style="stop-color:#B9B9B9"/>
			<stop  offset="0.0546" style="stop-color:#969595"/>
			<stop  offset="0.1117" style="stop-color:#777676"/>
			<stop  offset="0.1764" style="stop-color:#5D5A5B"/>
			<stop  offset="0.2496" style="stop-color:#474445"/>
			<stop  offset="0.335" style="stop-color:#373334"/>
			<stop  offset="0.4406" style="stop-color:#2B2829"/>
			<stop  offset="0.5887" style="stop-color:#252122"/>
			<stop  offset="1" style="stop-color:#231F20"/>
		</linearGradient>
		<path fill="url(#SVGID_1_)" d="M7.19,34.71c-3.09,0-5.61-2.53-5.61-5.61V6.75c0-3.09,2.52-5.61,5.61-5.61h21.62
			c3.09,0,5.61,2.53,5.61,5.61V29.1c0,3.09-2.53,5.61-5.61,5.61H7.19z"/>
		<path d="M7.19,35.71v-1v-1h21.62c2.53,0,4.61-2.08,4.61-4.61l0,0V6.75c0-2.53-2.08-4.61-4.61-4.61l0,0H7.19
			c-2.53,0-4.61,2.08-4.61,4.61l0,0V29.1c0,2.53,2.08,4.61,4.61,4.61l0,0v1V35.71c-3.65,0-6.61-2.97-6.61-6.61l0,0V6.75
			c0-3.64,2.97-6.61,6.61-6.61l0,0h21.62c3.64,0,6.61,2.97,6.61,6.61l0,0V29.1c0,3.64-2.97,6.61-6.61,6.61l0,0H7.19L7.19,35.71z"/>
		
			<linearGradient id="SVGID_2_" gradientUnits="userSpaceOnUse" x1="357.96" y1="-1157.3574" x2="388.9199" y2="-1157.3574" gradientTransform="matrix(1 0 0 -1 -355.5 -1143)">
			<stop  offset="0" style="stop-color:#000000"/>
			<stop  offset="0.6538" style="stop-color:#1C1C1C"/>
			<stop  offset="1" style="stop-color:#757575"/>
		</linearGradient>
		<path fill="url(#SVGID_2_)" d="M28.13,1.85H7.75c-2.91,0-5.29,2.38-5.29,5.29v19.73c2.66-3.11,12.05-12.38,30.96-14.39V7.13
			C33.42,4.23,31.04,1.85,28.13,1.85z"/>
	</g>
	<rect fill="none" width="36" height="36"/>
</g>
<g>
	<polygon fill="#969595" points="28.16,11.73 28.16,28.91 8.82,28.91 8.82,6.36 22.79,6.36 	"/>
	<path d="M8.32,29.41V5.86h14.67l5.52,5.51l-0.35,0.35l0.35-0.35l0.15,0.15v17.89H8.32L8.32,29.41z M9.32,28.41h18.33V11.93
		l-5.08-5.07H9.32V28.41L9.32,28.41z"/>
	
		<linearGradient id="SVGID_3_" gradientUnits="userSpaceOnUse" x1="351.1777" y1="-1310.8223" x2="364.2798" y2="-1332.0061" gradientTransform="matrix(1 0 0 -1 -340.5 -1303)">
		<stop  offset="0" style="stop-color:#FFFFFF"/>
		<stop  offset="1" style="stop-color:#000000"/>
	</linearGradient>
	<polygon fill="url(#SVGID_3_)" points="21.07,7.97 10.44,7.97 10.44,27.3 26.54,27.3 26.54,13.61 21.07,13.61 	"/>
	<path fill="#FFFFFF" d="M27.35,12.26V28.1H9.63V7.16h12.7L27.35,12.26z M21.88,7.97H10.44V27.3h16.11V12.8h-4.67V7.97L21.88,7.97z"
		/>
	
		<linearGradient id="SVGID_4_" gradientUnits="userSpaceOnUse" x1="351.0293" y1="-1315.1904" x2="361.5293" y2="-1315.1904" gradientTransform="matrix(1 0 0 -1 -340.5 -1303)">
		<stop  offset="0" style="stop-color:#E6E6E6"/>
		<stop  offset="0.2065" style="stop-color:#E2E2E2"/>
		<stop  offset="0.37" style="stop-color:#D8D8D8"/>
		<stop  offset="0.5187" style="stop-color:#C8C8C8"/>
		<stop  offset="0.6587" style="stop-color:#B0B0B0"/>
		<stop  offset="0.7925" style="stop-color:#929292"/>
		<stop  offset="0.92" style="stop-color:#6D6D6D"/>
		<stop  offset="1" style="stop-color:#525252"/>
	</linearGradient>
	<path fill="url(#SVGID_4_)" d="M10.53,16.45c1.73-2.1,5.08-5.11,10.5-6.14V7.93h-10.5V16.45z"/>
</g>
</svg>
