<?xml version="1.0" encoding="utf-8"?>
<!-- Generator: Adobe Illustrator 13.0.2, SVG Export Plug-In . SVG Version: 6.00 Build 14948)  -->
<!DOCTYPE svg PUBLIC "-//W3C//DTD SVG 1.1//EN" "http://www.w3.org/Graphics/SVG/1.1/DTD/svg11.dtd">
<svg version="1.1" id="Layer_1" xmlns="http://www.w3.org/2000/svg" xmlns:xlink="http://www.w3.org/1999/xlink" x="0px" y="0px"
	 width="36px" height="36px" viewBox="0 0 36 36" enable-background="new 0 0 36 36" xml:space="preserve">
<rect fill="none" width="36" height="36"/>
<linearGradient id="SVGID_1_" gradientUnits="userSpaceOnUse" x1="191.4199" y1="865.0049" x2="158.5801" y2="865.0049" gradientTransform="matrix(1 0 0 1 -157 -847)">
	<stop  offset="0" style="stop-color:#BBBBBB"/>
	<stop  offset="2.400000e-03" style="stop-color:#B9B9B9"/>
	<stop  offset="0.0546" style="stop-color:#969595"/>
	<stop  offset="0.1117" style="stop-color:#777676"/>
	<stop  offset="0.1764" style="stop-color:#5D5A5B"/>
	<stop  offset="0.2496" style="stop-color:#474445"/>
	<stop  offset="0.335" style="stop-color:#373334"/>
	<stop  offset="0.4406" style="stop-color:#2B2829"/>
	<stop  offset="0.5887" style="stop-color:#252122"/>
	<stop  offset="1" style="stop-color:#231F20"/>
</linearGradient>
<path fill="url(#SVGID_1_)" d="M7.19,34.79c-3.09,0-5.61-2.53-5.61-5.61V6.83c0-3.09,2.52-5.61,5.61-5.61h21.62
	c3.09,0,5.61,2.53,5.61,5.61v22.35c0,3.09-2.53,5.61-5.61,5.61H7.19z"/>
<path d="M7.19,35.79v-1v-1h21.62c2.53,0,4.61-2.08,4.61-4.61l0,0V6.83c0-2.53-2.08-4.61-4.61-4.61l0,0H7.19
	c-2.53,0-4.61,2.08-4.61,4.61l0,0v22.35c0,2.53,2.08,4.61,4.61,4.61l0,0v1V35.79c-3.65,0-6.61-2.97-6.61-6.61l0,0V6.83
	c0-3.64,2.97-6.61,6.61-6.61l0,0h21.62c3.64,0,6.61,2.97,6.61,6.61l0,0v22.35c0,3.64-2.97,6.61-6.61,6.61l0,0H7.19L7.19,35.79z"/>
<linearGradient id="SVGID_2_" gradientUnits="userSpaceOnUse" x1="117.46" y1="821.4395" x2="148.4199" y2="821.4395" gradientTransform="matrix(1 0 0 1 -115 -807)">
	<stop  offset="0" style="stop-color:#000000"/>
	<stop  offset="0.6538" style="stop-color:#1C1C1C"/>
	<stop  offset="1" style="stop-color:#757575"/>
</linearGradient>
<path fill="url(#SVGID_2_)" d="M28.13,1.93H7.75c-2.91,0-5.29,2.38-5.29,5.29v19.73c2.66-3.11,12.05-12.38,30.96-14.39V7.21
	C33.42,4.31,31.04,1.93,28.13,1.93z"/>
<polygon fill="#FFFFFF" points="6.67,18.34 6.67,16.78 8.17,16.78 6.67,16.78 6.67,18.34 5.17,18.34 5.17,8.87 31.29,8.87 
	31.29,18.34 "/>
<linearGradient id="SVGID_3_" gradientUnits="userSpaceOnUse" x1="121.6699" y1="820.6445" x2="144.79" y2="820.6445" gradientTransform="matrix(1 0 0 1 -115 -807)">
	<stop  offset="0" style="stop-color:#FFFFFF"/>
	<stop  offset="1" style="stop-color:#000000"/>
</linearGradient>
<polygon fill="url(#SVGID_3_)" points="6.67,16.7 6.67,10.59 29.79,10.59 29.79,16.7 "/>
<path d="M6.67,17.19v-0.5h0.5h-0.5V17.19h-0.5v-7.1h24.12v7.1H6.67L6.67,17.19z M7.17,16.2h22.12v-5.1H7.17V16.2L7.17,16.2z"/>
<linearGradient id="SVGID_4_" gradientUnits="userSpaceOnUse" x1="121.6699" y1="833.0195" x2="144.79" y2="833.0195" gradientTransform="matrix(1 0 0 1 -115 -807)">
	<stop  offset="0" style="stop-color:#FFFFFF"/>
	<stop  offset="1" style="stop-color:#000000"/>
</linearGradient>
<polygon fill="url(#SVGID_4_)" points="6.67,31.25 6.67,20.79 29.79,20.79 29.79,31.25 "/>
<path d="M6.67,31.75v-0.5h0.5h-0.5V31.75h-0.5V20.29h24.12v11.46H6.67L6.67,31.75z M7.17,30.75h22.12v-9.46H7.17V30.75L7.17,30.75z"
	/>
<linearGradient id="SVGID_5_" gradientUnits="userSpaceOnUse" x1="121.6699" y1="813.0254" x2="144.79" y2="813.0254" gradientTransform="matrix(1 0 0 1 -115 -807)">
	<stop  offset="0" style="stop-color:#FFFFFF"/>
	<stop  offset="1" style="stop-color:#000000"/>
</linearGradient>
<polygon fill="url(#SVGID_5_)" points="6.67,6.9 6.67,5.15 29.79,5.15 29.79,6.9 "/>
<path d="M6.67,7.4V6.9h0.5h-0.5V7.4h-0.5V4.65h24.12V7.4H6.67L6.67,7.4z M29.29,6.4V5.65H7.17V6.4H29.29L29.29,6.4z"/>
</svg>
