<?xml version="1.0" encoding="utf-8"?>
<!-- Generator: Adobe Illustrator 15.0.0, SVG Export Plug-In . SVG Version: 6.00 Build 0)  -->
<!DOCTYPE svg PUBLIC "-//W3C//DTD SVG 1.1//EN" "http://www.w3.org/Graphics/SVG/1.1/DTD/svg11.dtd">
<svg version="1.1" id="Layer_1" xmlns="http://www.w3.org/2000/svg" xmlns:xlink="http://www.w3.org/1999/xlink" x="0px" y="0px"
	 width="36px" height="36px" viewBox="0 0 36 36" enable-background="new 0 0 36 36" xml:space="preserve">
<linearGradient id="SVGID_1_" gradientUnits="userSpaceOnUse" x1="-1415.9688" y1="2334.6367" x2="-1382.3887" y2="2334.6367" gradientTransform="matrix(-1 0 0 1 -1381.1787 -2316.6318)">
	<stop  offset="0" style="stop-color:#FFFFFF"/>
	<stop  offset="0.1383" style="stop-color:#FAFAFA"/>
	<stop  offset="0.3118" style="stop-color:#EAEAEA"/>
	<stop  offset="0.5042" style="stop-color:#D1D1D1"/>
	<stop  offset="0.7101" style="stop-color:#ADADAD"/>
	<stop  offset="0.9247" style="stop-color:#7F7F7F"/>
	<stop  offset="1" style="stop-color:#6E6E6E"/>
</linearGradient>
<path fill="url(#SVGID_1_)" d="M29.05,0.84c3.15,0,5.74,2.58,5.74,5.74v22.85c0,3.15-2.58,5.74-5.74,5.74H6.95
	c-3.15,0-5.74-2.58-5.74-5.74V6.58c0-3.15,2.58-5.74,5.74-5.74H29.05z"/>
<g id="Layer_2_1_">
	<g>
		<g id="Layer_8_1_">
			<g>
				<g>
					<path fill="#FFFFFF" d="M25.435,22.31c-0.104,0-0.21-0.014-0.315-0.041l-0.638-0.167c-0.081,0.017-0.164,0.025-0.248,0.025
						c-0.112,0-0.228-0.016-0.341-0.048l-5.459-1.563l-4.711-1.234c-0.379-0.1-0.689-0.372-0.836-0.736
						c-0.146-0.364-0.112-0.775,0.093-1.11l5.856-9.576c0.547-1.397,1.985-2.396,3.479-2.396c0.068,0,0.137,0.002,0.204,0.006
						c0,0,5.938-0.286,5.958-0.286c0.039,0,0.079,0.002,0.118,0.006c0.84,0.081,1.565,0.497,2.045,1.172
						c0.51,0.718,0.672,1.658,0.445,2.58c-0.01,0.041-0.022,0.082-0.037,0.122l-4.447,12.424
						C26.421,21.99,25.946,22.31,25.435,22.31z M23.501,19.281l3.871-10.583c0,0-5.161,0.203-5.178,0.203
						c-0.042,0-0.084-0.002-0.125-0.006c-0.029,0.085-0.039,0.173-0.085,0.25l-5.026,8.37l2.131,0.61L23.501,19.281z"/>
					<path d="M28.477,6.424c1.05,0.101,1.681,1.096,1.404,2.221l-4.447,12.424l-1.156-0.303L28.75,8.542
						c0.14-0.559-0.176-1.056-0.705-1.11l-5.851,0.23c-0.033-0.003-0.067-0.005-0.102-0.005c-0.498,0-1.009,0.363-1.172,0.851
						l-5.858,9.755l3.699,1.059l-4.725-1.238l5.92-9.68c0.332-0.972,1.363-1.7,2.357-1.7c0.063,0,0.125,0.003,0.187,0.009
						L28.477,6.424 M18.762,19.321l5.516,1.445l-0.044,0.12L18.762,19.321 M28.477,3.944c-0.04,0-0.079,0.001-0.119,0.003
						l-5.835,0.281c-0.069-0.003-0.139-0.005-0.208-0.005c-1.949,0-3.828,1.275-4.588,3.074l-5.805,9.492
						c-0.409,0.669-0.478,1.493-0.185,2.221c0.293,0.728,0.913,1.273,1.672,1.473l4.697,1.23l5.445,1.559
						c0.228,0.064,0.457,0.096,0.684,0.096c0.055,0,0.109-0.002,0.164-0.006l0.406,0.107c0.21,0.055,0.422,0.081,0.63,0.081
						c1.024,0,1.974-0.639,2.334-1.645l4.447-12.424c0.028-0.08,0.053-0.162,0.073-0.244c0.313-1.271,0.08-2.581-0.639-3.593
						c-0.681-0.959-1.751-1.575-2.938-1.688C28.635,3.948,28.556,3.944,28.477,3.944L28.477,3.944z M22.847,10.118l2.726-0.107
						l-2.849,7.785l-3.307-0.866l-0.563-0.162L22.847,10.118L22.847,10.118z"/>
				</g>
			</g>
		</g>
		<g>
			<linearGradient id="SVGID_2_" gradientUnits="userSpaceOnUse" x1="17.0244" y1="16.209" x2="17.5699" y2="31.8284">
				<stop  offset="0.0121" style="stop-color:#DEDEDE"/>
				<stop  offset="0.0838" style="stop-color:#BBBBBB"/>
				<stop  offset="0.2185" style="stop-color:#7E7E7E"/>
				<stop  offset="0.3176" style="stop-color:#585858"/>
				<stop  offset="0.3697" style="stop-color:#4A4A4A"/>
				<stop  offset="1" style="stop-color:#000000"/>
			</linearGradient>
			<path fill="url(#SVGID_2_)" d="M22.458,31.657c-0.163,0-0.327-0.032-0.482-0.098l-17.75-7.5c-0.391-0.165-0.67-0.519-0.74-0.937
				s0.078-0.844,0.393-1.127l5.669-5.107c0.229-0.243,0.608-0.46,1.234-0.46c0.451,0,1.018,0.099,1.514,0.191l13.302,1.836
				c0.1,0.017,4.299,1.037,5.262,3.616c0.286,0.767,0.4,1.965-0.681,3.324c-0.049,0.062-0.104,0.118-0.163,0.17l-6.75,5.792
				C23.036,31.555,22.749,31.657,22.458,31.657z"/>
			<path d="M10.781,17.668c0.401,0,1.04,0.125,1.355,0.183l13.292,1.833c0.451,0.084,6.236,1.852,3.779,4.94l-6.75,5.792l-17.75-7.5
				l5.729-5.161C10.476,17.692,10.605,17.668,10.781,17.668 M10.781,15.188c-1.041,0-1.698,0.402-2.097,0.809l-5.636,5.077
				c-0.63,0.567-0.926,1.418-0.786,2.255c0.141,0.836,0.699,1.542,1.48,1.872l17.75,7.5c0.311,0.132,0.639,0.196,0.965,0.196
				c0.582,0,1.157-0.205,1.615-0.599l6.75-5.792c0.119-0.102,0.228-0.215,0.325-0.338c1.519-1.908,1.198-3.658,0.872-4.53
				c-1.228-3.287-6.09-4.383-6.138-4.392c-0.038-0.007-0.077-0.014-0.115-0.019l-13.234-1.825l-0.01-0.002
				C11.973,15.298,11.338,15.188,10.781,15.188L10.781,15.188z"/>
		</g>
		<g>
			<linearGradient id="SVGID_3_" gradientUnits="userSpaceOnUse" x1="16.3516" y1="16.4902" x2="13.5619" y2="29.6145">
				<stop  offset="0.1576" style="stop-color:#919191"/>
				<stop  offset="1" style="stop-color:#000000"/>
			</linearGradient>
			<path fill="url(#SVGID_3_)" d="M21.722,31.321c-0.164,0-0.327-0.032-0.481-0.098L4.228,24.061
				c-0.391-0.164-0.671-0.518-0.742-0.936c-0.071-0.419,0.078-0.845,0.393-1.128l5.668-5.106c0.229-0.244,0.608-0.461,1.233-0.461
				c0.454,0,1.023,0.1,1.522,0.193l13.294,1.834c1.137,0.208,1.529,0.899,1.536,1.48c0.002,0.143-0.026,0.719-0.56,1.107
				l-3.696,9.486c-0.121,0.312-0.363,0.562-0.672,0.691C22.051,31.288,21.886,31.321,21.722,31.321z"/>
			<path d="M10.78,17.669c0.401,0,1.042,0.125,1.356,0.184l13.292,1.832c0.45,0.083,0.692,0.34,0.169,0.449l-3.875,9.946
				L4.708,22.918l5.729-5.161C10.475,17.693,10.605,17.669,10.78,17.669 M10.78,15.189c-1.041,0-1.699,0.403-2.098,0.811
				l-5.634,5.075c-0.63,0.568-0.927,1.419-0.785,2.256s0.701,1.543,1.483,1.873l17.014,7.163c0.308,0.129,0.635,0.194,0.962,0.194
				c0.329,0,0.657-0.065,0.967-0.196c0.616-0.262,1.101-0.76,1.344-1.384l3.589-9.212c0.521-0.526,0.759-1.214,0.752-1.847
				c-0.014-1.105-0.79-2.362-2.496-2.676c-0.036-0.007-0.073-0.013-0.11-0.018l-13.232-1.824l-0.003,0
				C11.978,15.3,11.34,15.189,10.78,15.189L10.78,15.189z"/>
		</g>
		<g>
			<linearGradient id="SVGID_4_" gradientUnits="userSpaceOnUse" x1="16.9702" y1="16.061" x2="13.3803" y2="29.0932">
				<stop  offset="0" style="stop-color:#C5C5C5"/>
				<stop  offset="0.2788" style="stop-color:#727272"/>
				<stop  offset="0.5409" style="stop-color:#343434"/>
				<stop  offset="0.6949" style="stop-color:#0E0E0E"/>
				<stop  offset="0.7758" style="stop-color:#000000"/>
			</linearGradient>
			<path fill="url(#SVGID_4_)" d="M22.088,31.446c-0.16,0-0.322-0.031-0.479-0.097l-17.38-7.289
				c-0.476-0.199-0.778-0.673-0.76-1.188c0.019-0.516,0.355-0.966,0.844-1.13c0.037-0.013,3.717-1.26,5.651-2.565
				c0.6-0.405,0.748-0.75,0.904-1.117c0.196-0.46,0.606-1.417,1.909-1.417c0.169,0,0.368,0.017,0.602,0.06l11.925,1.712
				c1.162,0.104,1.646,0.664,1.838,1.114c0.159,0.376,0.154,0.793-0.002,1.158l-0.785,3.627c-0.021,0.1-0.056,0.197-0.102,0.288
				l-3.054,6.154C22.984,31.191,22.546,31.446,22.088,31.446z"/>
			<path d="M12.777,17.883c0.107,0,0.232,0.013,0.379,0.04l11.97,1.72c0.884,0.08,0.983,0.436,0.837,0.617l-0.821,3.792
				l-3.054,6.154l-17.38-7.289c0,0,3.85-1.295,5.949-2.713C12.382,19.041,11.76,17.883,12.777,17.883 M12.777,15.403
				c-1.408,0-2.434,0.729-3.049,2.169c-0.13,0.304-0.161,0.376-0.458,0.576c-1.488,1.005-4.369,2.086-5.354,2.418
				c-0.978,0.33-1.649,1.23-1.687,2.262c-0.037,1.03,0.567,1.977,1.519,2.376l17.38,7.289c0.313,0.131,0.638,0.193,0.958,0.193
				c0.916,0,1.792-0.51,2.223-1.378l3.054-6.154c0.091-0.184,0.159-0.378,0.202-0.577l0.764-3.527
				c0.237-0.64,0.228-1.355-0.047-2.005c-0.262-0.616-0.979-1.669-2.858-1.865l-11.876-1.706
				C13.274,15.426,13.021,15.403,12.777,15.403L12.777,15.403z"/>
		</g>
	</g>
	<g>
		<g id="Layer_8">
			<g>
				<g>
					<path fill="#FFFFFF" d="M25.434,21.689c-0.052,0-0.104-0.007-0.157-0.021l-0.804-0.21c-0.074,0.031-0.156,0.048-0.239,0.048
						c-0.057,0-0.113-0.008-0.171-0.024l-5.465-1.563l-4.718-1.236c-0.189-0.05-0.345-0.186-0.418-0.368
						c-0.073-0.182-0.056-0.388,0.046-0.555l5.886-9.625c0.437-1.174,1.678-2.051,2.92-2.051c0.082,0,0.164,0.004,0.245,0.012
						l5.887-0.29c0.747,0.065,1.314,0.389,1.688,0.916c0.405,0.571,0.532,1.326,0.35,2.073l-4.466,12.485
						C25.928,21.529,25.69,21.689,25.434,21.689z M23.889,20.023l4.279-11.695c0.007-0.044-0.003-0.143-0.048-0.207
						c-0.03-0.043-0.076-0.068-0.139-0.074l-5.764,0.233c-0.014,0-0.116-0.005-0.125-0.005c-0.239,0-0.507,0.196-0.584,0.427
						c-0.014,0.043-0.033,0.084-0.057,0.123l-5.441,9.063l2.914,0.833L23.889,20.023z"/>
					<path fill="#FFFFFF" d="M28.477,6.424c1.05,0.101,1.681,1.096,1.404,2.221l-4.447,12.424l-1.156-0.303L28.75,8.542
						c0.14-0.559-0.176-1.056-0.705-1.11l-5.851,0.23c-0.033-0.003-0.067-0.005-0.102-0.005c-0.498,0-1.009,0.363-1.172,0.851
						l-5.858,9.755l3.699,1.059l-4.725-1.238l5.92-9.68c0.332-0.972,1.363-1.7,2.357-1.7c0.063,0,0.125,0.003,0.187,0.009
						L28.477,6.424 M18.762,19.321l5.516,1.445l-0.044,0.12L18.762,19.321 M28.477,5.185c-0.02,0-0.04,0-0.06,0.001L22.519,5.47
						c-0.067-0.004-0.136-0.006-0.204-0.006c-1.493,0-2.932,0.999-3.479,2.396l-5.856,9.576c-0.205,0.334-0.239,0.746-0.093,1.11
						c0.146,0.364,0.457,0.637,0.836,0.736l4.711,1.234l5.459,1.563c0.113,0.032,0.229,0.048,0.341,0.048
						c0.084,0,0.167-0.009,0.248-0.025l0.638,0.167c0.105,0.027,0.211,0.041,0.315,0.041c0.512,0,0.986-0.319,1.166-0.822
						l4.447-12.424c0.015-0.04,0.027-0.081,0.037-0.122c0.227-0.921,0.064-1.862-0.445-2.58c-0.479-0.675-1.205-1.091-2.045-1.172
						C28.556,5.186,28.516,5.185,28.477,5.185L28.477,5.185z M22.216,8.901c0.008,0,0.017,0,0.027,0l5.129-0.202l-3.871,10.583
						l-4.412-1.156l-2.131-0.61l5.026-8.37c0.046-0.077,0.084-0.16,0.112-0.246c0,0.003,0.001,0.005,0.003,0.005
						c0.006,0,0.02-0.009,0.028-0.012C22.175,8.897,22.184,8.901,22.216,8.901L22.216,8.901z"/>
				</g>
			</g>
		</g>
		<g>
			<linearGradient id="SVGID_5_" gradientUnits="userSpaceOnUse" x1="17.0444" y1="16.8281" x2="17.5466" y2="31.209">
				<stop  offset="0.0121" style="stop-color:#DEDEDE"/>
				<stop  offset="0.0838" style="stop-color:#BBBBBB"/>
				<stop  offset="0.2185" style="stop-color:#7E7E7E"/>
				<stop  offset="0.3176" style="stop-color:#585858"/>
				<stop  offset="0.3697" style="stop-color:#4A4A4A"/>
				<stop  offset="1" style="stop-color:#000000"/>
			</linearGradient>
			<path fill="url(#SVGID_5_)" d="M22.458,31.037c-0.082,0-0.163-0.017-0.241-0.049l-17.75-7.5c-0.195-0.083-0.335-0.26-0.37-0.469
				s0.039-0.421,0.196-0.563l5.691-5.127c0.25-0.281,0.654-0.281,0.796-0.281c0.432,0,1.038,0.113,1.401,0.181l13.332,1.841
				c0.066,0.012,3.928,0.978,4.765,3.219c0.23,0.616,0.315,1.59-0.585,2.722c-0.024,0.031-0.052,0.06-0.082,0.085l-6.75,5.792
				C22.747,30.985,22.604,31.037,22.458,31.037z"/>
			<path fill="#FFFFFF" d="M10.781,17.668c0.401,0,1.04,0.125,1.355,0.183l13.292,1.833c0.451,0.084,6.236,1.852,3.779,4.94
				l-6.75,5.792l-17.75-7.5l5.729-5.161C10.476,17.692,10.605,17.668,10.781,17.668 M10.781,16.429c-0.625,0-1.005,0.217-1.234,0.46
				l-5.669,5.107c-0.315,0.283-0.463,0.709-0.393,1.127s0.35,0.771,0.74,0.937l17.75,7.5c0.155,0.065,0.319,0.098,0.482,0.098
				c0.291,0,0.578-0.103,0.808-0.299l6.75-5.792c0.06-0.052,0.114-0.108,0.163-0.17c1.081-1.359,0.967-2.558,0.681-3.324
				c-0.963-2.579-5.162-3.599-5.204-3.607c-0.019-0.003-0.038-0.006-0.058-0.009l-13.263-1.829l-0.039-0.007
				C11.8,16.527,11.232,16.429,10.781,16.429L10.781,16.429z"/>
		</g>
		<g>
			<linearGradient id="SVGID_6_" gradientUnits="userSpaceOnUse" x1="16.2241" y1="17.0962" x2="13.6921" y2="29.0083">
				<stop  offset="0.1576" style="stop-color:#919191"/>
				<stop  offset="1" style="stop-color:#000000"/>
			</linearGradient>
			<path fill="url(#SVGID_6_)" d="M21.722,30.701c-0.082,0-0.164-0.017-0.24-0.049L4.468,23.489
				c-0.195-0.082-0.335-0.259-0.371-0.468s0.039-0.422,0.196-0.564l5.691-5.126c0.25-0.281,0.653-0.281,0.795-0.281
				c0.434,0,1.043,0.114,1.408,0.183l13.325,1.839c0.632,0.116,0.995,0.44,1,0.874c0.002,0.119-0.032,0.468-0.44,0.678L22.3,30.306
				c-0.062,0.156-0.183,0.281-0.337,0.347C21.886,30.685,21.804,30.701,21.722,30.701z"/>
			<path fill="#FFFFFF" d="M10.78,17.669c0.401,0,1.042,0.125,1.356,0.184l13.292,1.832c0.45,0.083,0.692,0.34,0.169,0.449
				l-3.875,9.946L4.708,22.918l5.729-5.161C10.475,17.693,10.605,17.669,10.78,17.669 M10.78,16.43
				c-0.625,0-1.004,0.217-1.233,0.461l-5.668,5.106c-0.315,0.283-0.463,0.709-0.393,1.128c0.071,0.418,0.351,0.771,0.742,0.936
				l17.013,7.163c0.154,0.065,0.317,0.098,0.481,0.098s0.329-0.033,0.483-0.099c0.309-0.13,0.551-0.38,0.672-0.691l3.696-9.486
				c0.533-0.389,0.562-0.965,0.56-1.107c-0.007-0.581-0.399-1.272-1.48-1.471c-0.019-0.003-0.037-0.006-0.056-0.009l-13.262-1.828
				l-0.033-0.006C11.804,16.529,11.233,16.43,10.78,16.43L10.78,16.43z"/>
		</g>
		<g>
			<linearGradient id="SVGID_7_" gradientUnits="userSpaceOnUse" x1="16.8047" y1="16.6606" x2="13.5447" y2="28.4952">
				<stop  offset="0" style="stop-color:#C5C5C5"/>
				<stop  offset="0.2788" style="stop-color:#727272"/>
				<stop  offset="0.5409" style="stop-color:#343434"/>
				<stop  offset="0.6949" style="stop-color:#0E0E0E"/>
				<stop  offset="0.7758" style="stop-color:#000000"/>
			</linearGradient>
			<path fill="url(#SVGID_7_)" d="M22.089,30.826c-0.08,0-0.161-0.016-0.24-0.049l-17.38-7.289c-0.238-0.1-0.389-0.336-0.38-0.594
				s0.177-0.482,0.422-0.565c0.038-0.013,3.795-1.285,5.8-2.639c0.751-0.507,0.951-0.975,1.127-1.387
				c0.177-0.414,0.445-1.041,1.339-1.041c0.138,0,0.3,0.015,0.49,0.05l11.947,1.716c0.707,0.063,1.174,0.313,1.355,0.741
				c0.1,0.234,0.089,0.497-0.022,0.72l-0.8,3.692c-0.011,0.051-0.027,0.099-0.05,0.145l-3.054,6.154
				C22.536,30.699,22.317,30.826,22.089,30.826z"/>
			<path fill="#FFFFFF" d="M12.777,17.883c0.107,0,0.232,0.013,0.379,0.04l11.97,1.72c0.884,0.08,0.983,0.436,0.837,0.617
				l-0.821,3.792l-3.054,6.154l-17.38-7.289c0,0,3.85-1.295,5.949-2.713C12.382,19.041,11.76,17.883,12.777,17.883 M12.777,16.643
				c-1.303,0-1.713,0.957-1.909,1.417c-0.157,0.366-0.305,0.711-0.904,1.116c-1.934,1.307-5.614,2.554-5.651,2.566
				c-0.489,0.164-0.825,0.614-0.844,1.13c-0.019,0.516,0.284,0.989,0.76,1.188l17.38,7.289c0.156,0.065,0.318,0.097,0.479,0.097
				c0.458,0,0.896-0.255,1.111-0.689l3.054-6.154c0.046-0.091,0.08-0.188,0.102-0.288l0.785-3.627
				c0.156-0.365,0.161-0.782,0.002-1.158c-0.189-0.446-0.667-1-1.868-1.118l-11.94-1.716C13.158,16.663,12.961,16.643,12.777,16.643
				L12.777,16.643z"/>
		</g>
	</g>
	<g id="Layer_8_2_">
		<g>
			<path d="M28.477,6.424l-5.976,0.288c-1.049-0.099-2.191,0.659-2.544,1.691l-5.92,9.68l11.396,2.986l4.447-12.424
				C30.157,7.521,29.526,6.525,28.477,6.424z M24.233,20.887l-9.17-2.624l5.858-9.755c0.174-0.521,0.744-0.899,1.273-0.846
				l5.851-0.23c0.529,0.054,0.845,0.551,0.705,1.11L24.233,20.887z"/>
		</g>
	</g>
	
		<linearGradient id="SVGID_8_" gradientUnits="userSpaceOnUse" x1="18.0474" y1="6.2886" x2="18.4354" y2="17.4009" gradientTransform="matrix(0.9836 0.1805 0.1805 -0.9836 -2.9154 31.9171)">
		<stop  offset="0" style="stop-color:#BBBBBB"/>
		<stop  offset="0.103" style="stop-color:#7E7E7E"/>
		<stop  offset="0.3333" style="stop-color:#4A4A4A"/>
		<stop  offset="0.6485" style="stop-color:#000000"/>
	</linearGradient>
	<path fill="url(#SVGID_8_)" d="M22.458,30.417l6.75-5.792c2.457-3.089-3.328-4.856-3.779-4.94l-13.292-1.833
		c-0.453-0.084-1.574-0.305-1.699-0.096l-5.729,5.161L22.458,30.417z"/>
	
		<linearGradient id="SVGID_9_" gradientUnits="userSpaceOnUse" x1="17.8579" y1="4.9697" x2="15.2148" y2="17.4048" gradientTransform="matrix(0.9836 0.1805 0.1805 -0.9836 -2.9154 31.9171)">
		<stop  offset="0.1576" style="stop-color:#919191"/>
		<stop  offset="1" style="stop-color:#000000"/>
	</linearGradient>
	<path fill="url(#SVGID_9_)" d="M21.722,30.081l3.875-9.946c0.523-0.109,0.281-0.366-0.169-0.449l-13.292-1.832
		c-0.453-0.084-1.575-0.306-1.699-0.097l-5.729,5.161L21.722,30.081z"/>
	
		<linearGradient id="SVGID_10_" gradientUnits="userSpaceOnUse" x1="21.8535" y1="4.9824" x2="13.4672" y2="17.7005" gradientTransform="matrix(0.9836 0.1805 0.1805 -0.9836 -2.9154 31.9171)">
		<stop  offset="0.0909" style="stop-color:#C5C5C5"/>
		<stop  offset="0.3636" style="stop-color:#727272"/>
		<stop  offset="0.5576" style="stop-color:#343434"/>
		<stop  offset="0.7455" style="stop-color:#0E0E0E"/>
		<stop  offset="1" style="stop-color:#000000"/>
	</linearGradient>
	<path fill="url(#SVGID_10_)" stroke="#FFFFFF" stroke-width="0.25" stroke-miterlimit="10" d="M21.721,30.011l2.441-6.161
		l1.434-3.785c0.146-0.182,0.047-0.537-0.838-0.617l-11.977-1.832c-2.079-0.367-0.427,1.312-1.531,2.104
		c-2.059,1.477-5.982,3.394-5.982,3.394L21.721,30.011z"/>
</g>
</svg>
