<?xml version="1.0" encoding="utf-8"?>
<!-- Generator: Adobe Illustrator 13.0.2, SVG Export Plug-In . SVG Version: 6.00 Build 14948)  -->
<!DOCTYPE svg PUBLIC "-//W3C//DTD SVG 1.1//EN" "http://www.w3.org/Graphics/SVG/1.1/DTD/svg11.dtd">
<svg version="1.1" id="Layer_1" xmlns="http://www.w3.org/2000/svg" xmlns:xlink="http://www.w3.org/1999/xlink" x="0px" y="0px"
	 width="36px" height="36px" viewBox="0 0 36 36" enable-background="new 0 0 36 36" xml:space="preserve">
<rect fill="none" width="36" height="36"/>
<linearGradient id="SVGID_1_" gradientUnits="userSpaceOnUse" x1="191.4199" y1="865.0049" x2="158.5801" y2="865.0049" gradientTransform="matrix(1 0 0 1 -157 -847)">
	<stop  offset="0" style="stop-color:#BBBBBB"/>
	<stop  offset="2.400000e-03" style="stop-color:#B9B9B9"/>
	<stop  offset="0.0546" style="stop-color:#969595"/>
	<stop  offset="0.1117" style="stop-color:#777676"/>
	<stop  offset="0.1764" style="stop-color:#5D5A5B"/>
	<stop  offset="0.2496" style="stop-color:#474445"/>
	<stop  offset="0.335" style="stop-color:#373334"/>
	<stop  offset="0.4406" style="stop-color:#2B2829"/>
	<stop  offset="0.5887" style="stop-color:#252122"/>
	<stop  offset="1" style="stop-color:#231F20"/>
</linearGradient>
<path fill="url(#SVGID_1_)" d="M7.19,34.79c-3.09,0-5.61-2.53-5.61-5.61V6.83c0-3.09,2.52-5.61,5.61-5.61h21.62
	c3.09,0,5.61,2.53,5.61,5.61v22.35c0,3.09-2.53,5.61-5.61,5.61H7.19z"/>
<path d="M7.19,35.79v-1v-1h21.62c2.53,0,4.61-2.08,4.61-4.61l0,0V6.83c0-2.53-2.08-4.61-4.61-4.61l0,0H7.19
	c-2.53,0-4.61,2.08-4.61,4.61l0,0v22.35c0,2.53,2.08,4.61,4.61,4.61l0,0v1V35.79c-3.65,0-6.61-2.97-6.61-6.61l0,0V6.83
	c0-3.64,2.97-6.61,6.61-6.61l0,0h21.62c3.64,0,6.61,2.97,6.61,6.61l0,0v22.35c0,3.64-2.97,6.61-6.61,6.61l0,0H7.19L7.19,35.79z"/>
<linearGradient id="SVGID_2_" gradientUnits="userSpaceOnUse" x1="117.46" y1="821.4395" x2="148.4199" y2="821.4395" gradientTransform="matrix(1 0 0 1 -115 -807)">
	<stop  offset="0" style="stop-color:#000000"/>
	<stop  offset="0.6538" style="stop-color:#1C1C1C"/>
	<stop  offset="1" style="stop-color:#757575"/>
</linearGradient>
<path fill="url(#SVGID_2_)" d="M28.13,1.93H7.75c-2.91,0-5.29,2.38-5.29,5.29v19.73c2.66-3.11,12.05-12.38,30.96-14.39V7.21
	C33.42,4.31,31.04,1.93,28.13,1.93z"/>
<path d="M7.17,29.46l0.18-0.17L7.17,29.46z"/>
<linearGradient id="SVGID_3_" gradientUnits="userSpaceOnUse" x1="136.4492" y1="813.125" x2="136.4558" y2="813.125" gradientTransform="matrix(1 -4.800000e-03 4.800000e-03 1 -115.1366 -802.4264)">
	<stop  offset="0" style="stop-color:#FFFFFF"/>
	<stop  offset="1" style="stop-color:#000000"/>
</linearGradient>
<path fill="url(#SVGID_3_)" d="M25.21,10.06l0.01-0.03C25.22,10.04,25.22,10.05,25.21,10.06L25.21,10.06z"/>
<path d="M8.9,28.76l0.16-0.16L8.9,28.76z"/>
<polygon points="4.92,27.26 27.79,4.4 30.56,7.17 8.18,29.55 7.69,30.04 "/>
<path d="M4.57,27.62l0.35-0.35l0.35,0.35l-0.35-0.35L4.57,27.62l-0.35-0.36L27.79,3.69l3.48,3.48L8.54,29.9L7.7,30.75L4.57,27.62
	L4.57,27.62z M7.69,29.33l0.14-0.14L29.85,7.17l-2.06-2.06L5.63,27.26L7.69,29.33L7.69,29.33z"/>
<path d="M7.69,29.06l0.49-0.49L7.69,29.06z"/>
<rect x="16.47" y="1.75" transform="matrix(0.7073 0.7069 -0.7069 0.7073 17.3675 -7.5002)" fill="#FFFFFF" width="2.54" height="30.95"/>
<path fill="#FFFFFF" d="M5.55,27.26L27.79,5.02l2.15,2.15L7.87,29.23l-0.18,0.18L5.55,27.26L5.55,27.26z M7.69,29.06l0.18-0.18
	L7.69,29.06L7.69,29.06z M6.25,27.26l1.44,1.44L29.23,7.17l-1.44-1.44L6.25,27.26L6.25,27.26z"/>
<linearGradient id="SVGID_4_" gradientUnits="userSpaceOnUse" x1="121.8799" y1="824.2148" x2="143.5996" y2="824.2148" gradientTransform="matrix(1 0 0 1 -115 -807)">
	<stop  offset="0" style="stop-color:#FFFFFF"/>
	<stop  offset="1" style="stop-color:#000000"/>
</linearGradient>
<polygon fill="url(#SVGID_4_)" points="6.88,27.26 7.69,28.08 28.6,7.17 27.79,6.35 "/>
</svg>
