<?xml version="1.0" encoding="utf-8"?>
<!-- Generator: Adobe Illustrator 15.0.0, SVG Export Plug-In . SVG Version: 6.00 Build 0)  -->
<!DOCTYPE svg PUBLIC "-//W3C//DTD SVG 1.1//EN" "http://www.w3.org/Graphics/SVG/1.1/DTD/svg11.dtd">
<svg version="1.1" id="Layer_1" xmlns="http://www.w3.org/2000/svg" xmlns:xlink="http://www.w3.org/1999/xlink" x="0px" y="0px"
	 width="36px" height="36px" viewBox="0 0 36 36" enable-background="new 0 0 36 36" xml:space="preserve">
<linearGradient id="SVGID_1_" gradientUnits="userSpaceOnUse" x1="-1415.9688" y1="2334.6367" x2="-1382.3887" y2="2334.6367" gradientTransform="matrix(-1 0 0 1 -1381.1787 -2316.6318)">
	<stop  offset="0" style="stop-color:#FFFFFF"/>
	<stop  offset="0.1383" style="stop-color:#FAFAFA"/>
	<stop  offset="0.3118" style="stop-color:#EAEAEA"/>
	<stop  offset="0.5042" style="stop-color:#D1D1D1"/>
	<stop  offset="0.7101" style="stop-color:#ADADAD"/>
	<stop  offset="0.9247" style="stop-color:#7F7F7F"/>
	<stop  offset="1" style="stop-color:#6E6E6E"/>
</linearGradient>
<path fill="url(#SVGID_1_)" d="M29.05,0.84c3.15,0,5.74,2.58,5.74,5.74v22.85c0,3.15-2.58,5.74-5.74,5.74H6.95
	c-3.15,0-5.74-2.58-5.74-5.74V6.58c0-3.15,2.58-5.74,5.74-5.74H29.05z"/>
<g>
	<path d="M27.027,27.337c2.434-2.796,3.589-6.508,3.171-10.185c-0.08-0.695-0.484-1.326-1.083-1.686
		c-0.602-0.36-1.348-0.424-1.998-0.169c-0.659,0.258-1.207,0.37-1.457,0.364c-0.641-0.013-1.262,0.248-1.7,0.716
		c-0.003,0.002-0.003,0.004-0.006,0.005c-0.453,0.522-0.652,1.131-0.603,1.737c0.143,1.689-0.412,3.393-1.525,4.672
		c-0.674,0.773-1.508,1.355-2.479,1.729c-1.571,0.604-3.282,0.563-4.818-0.121c-1.539-0.684-2.717-1.924-3.321-3.496
		c-0.838-2.185-0.406-4.636,1.13-6.401c0.668-0.768,1.529-1.37,2.489-1.739c0.683-0.262,1.393-0.401,2.108-0.416
		c-0.222,0.636-0.15,1.347,0.224,1.943c0.498,0.796,1.416,1.199,2.341,1.025l7.511-1.419c0.497-0.093,0.956-0.356,1.29-0.74
		c0.188-0.213,0.33-0.459,0.427-0.729c0.271-0.761,0.111-1.614-0.408-2.225l-4.943-5.83c-0.609-0.716-1.576-0.982-2.467-0.677
		c-0.378,0.131-0.715,0.357-0.975,0.657c-0.314,0.363-0.508,0.82-0.549,1.298c-2.362-0.433-4.77-0.209-7.04,0.665
		c-2.005,0.771-3.808,2.031-5.214,3.647C3.91,13.665,3,18.809,4.758,23.383c1.264,3.29,3.738,5.893,6.966,7.326
		c3.227,1.436,6.816,1.529,10.106,0.266C23.831,30.204,25.627,28.947,27.027,27.337z"/>
	<path fill="#FFFFFF" d="M26.173,26.593c2.224-2.557,3.281-5.948,2.897-9.313c-0.039-0.35-0.238-0.661-0.541-0.843
		c-0.301-0.181-0.67-0.213-0.998-0.084c-0.729,0.286-1.438,0.452-1.895,0.441c-0.322-0.006-0.632,0.122-0.851,0.357
		c-0.011,0.011-0.021,0.021-0.029,0.032c-0.2,0.23-0.302,0.532-0.274,0.839c0.168,1.996-0.489,4.003-1.803,5.514
		c-0.798,0.915-1.781,1.603-2.925,2.042c-1.854,0.713-3.872,0.662-5.687-0.145c-1.815-0.808-3.205-2.271-3.918-4.125
		c-0.99-2.576-0.479-5.471,1.333-7.554c0.79-0.908,1.805-1.617,2.937-2.053c1.447-0.556,2.992-0.641,4.469-0.261l-0.718,0.966
		c-0.279,0.375-0.299,0.882-0.051,1.278c0.247,0.396,0.713,0.599,1.172,0.513l7.51-1.419c0.255-0.048,0.48-0.18,0.646-0.37
		c0.093-0.105,0.166-0.23,0.214-0.366c0.134-0.381,0.057-0.804-0.204-1.113l-4.945-5.828c-0.302-0.355-0.791-0.49-1.232-0.339
		c-0.192,0.068-0.358,0.182-0.487,0.33c-0.165,0.19-0.267,0.434-0.276,0.697l-0.053,1.278c-2.538-0.752-5.221-0.655-7.707,0.302
		c-1.833,0.703-3.482,1.856-4.765,3.332c-2.948,3.39-3.781,8.093-2.174,12.272c1.155,3.008,3.417,5.387,6.369,6.697
		c2.95,1.313,6.231,1.396,9.239,0.242C23.252,29.212,24.893,28.063,26.173,26.593z"/>
	
		<linearGradient id="SVGID_2_" gradientUnits="userSpaceOnUse" x1="70.3057" y1="50.5537" x2="63.0785" y2="71.5425" gradientTransform="matrix(0.9969 0.078 0.078 -0.9969 -54.1963 74.148)">
		<stop  offset="0" style="stop-color:#626262"/>
		<stop  offset="0.5273" style="stop-color:#000000"/>
	</linearGradient>
	<path fill="url(#SVGID_2_)" d="M25.611,17.927c0.313,3.7-1.811,7.313-5.449,8.708c-4.415,1.701-9.371-0.502-11.069-4.92
		c-1.699-4.418,0.505-9.373,4.922-11.071c2.263-0.869,4.658-0.702,6.692,0.251l-1.625,2.189l7.509-1.419l-4.944-5.829L21.527,8.67
		c-2.56-1.143-5.547-1.327-8.365-0.242C7.53,10.592,4.71,16.937,6.875,22.568c2.166,5.634,8.509,8.453,14.143,6.287
		c4.744-1.823,7.478-6.615,6.928-11.446C27.074,17.75,26.23,17.94,25.611,17.927z"/>
	<circle cx="16.911" cy="18.845" r="2.406"/>
</g>
</svg>
