<?xml version="1.0" encoding="utf-8"?>
<!-- Generator: Adobe Illustrator 15.0.0, SVG Export Plug-In . SVG Version: 6.00 Build 0)  -->
<!DOCTYPE svg PUBLIC "-//W3C//DTD SVG 1.1//EN" "http://www.w3.org/Graphics/SVG/1.1/DTD/svg11.dtd">
<svg version="1.1" id="Layer_1" xmlns="http://www.w3.org/2000/svg" xmlns:xlink="http://www.w3.org/1999/xlink" x="0px" y="0px"
	 width="36px" height="36px" viewBox="0 0 36 36" enable-background="new 0 0 36 36" xml:space="preserve">
<linearGradient id="SVGID_1_" gradientUnits="userSpaceOnUse" x1="-1415.9688" y1="2334.6367" x2="-1382.3887" y2="2334.6367" gradientTransform="matrix(-1 0 0 1 -1381.1787 -2316.6318)">
	<stop  offset="0" style="stop-color:#FFFFFF"/>
	<stop  offset="0.1383" style="stop-color:#FAFAFA"/>
	<stop  offset="0.3118" style="stop-color:#EAEAEA"/>
	<stop  offset="0.5042" style="stop-color:#D1D1D1"/>
	<stop  offset="0.7101" style="stop-color:#ADADAD"/>
	<stop  offset="0.9247" style="stop-color:#7F7F7F"/>
	<stop  offset="1" style="stop-color:#6E6E6E"/>
</linearGradient>
<path fill="url(#SVGID_1_)" d="M29.05,0.84c3.15,0,5.74,2.58,5.74,5.74v22.85c0,3.15-2.58,5.74-5.74,5.74H6.95
	c-3.15,0-5.74-2.58-5.74-5.74V6.58c0-3.15,2.58-5.74,5.74-5.74H29.05z"/>
<g>
	<polygon points="12.226,31.029 12.226,23.775 4.969,23.775 4.969,12.226 12.226,12.226 12.226,4.97 23.773,4.97 23.773,12.226 
		31.029,12.226 31.029,23.775 23.773,23.775 23.773,31.029 	"/>
	<polygon fill="#FFFFFF" points="13.36,29.896 13.36,22.643 6.103,22.643 6.103,13.359 13.36,13.359 13.36,6.104 22.641,6.104 
		22.641,13.359 29.896,13.359 29.896,22.643 22.641,22.643 22.641,29.896 	"/>
	
		<linearGradient id="SVGID_2_" gradientUnits="userSpaceOnUse" x1="7.1968" y1="17.2148" x2="28.7236" y2="17.2148" gradientTransform="matrix(1 0 0 -1 0.04 35.2148)">
		<stop  offset="0" style="stop-color:#DEDEDE"/>
		<stop  offset="0.0485" style="stop-color:#C5C5C5"/>
		<stop  offset="0.4249" style="stop-color:#727272"/>
		<stop  offset="0.6972" style="stop-color:#343434"/>
		<stop  offset="0.8958" style="stop-color:#0E0E0E"/>
		<stop  offset="1" style="stop-color:#000000"/>
	</linearGradient>
	<polygon fill="url(#SVGID_2_)" points="28.764,14.493 21.507,14.493 21.507,7.238 14.494,7.238 14.494,14.493 7.237,14.493 
		7.237,21.509 14.494,21.509 14.494,28.762 21.507,28.762 21.507,21.509 28.764,21.509 	"/>
</g>
</svg>
