<?xml version="1.0" encoding="utf-8"?>
<!-- Generator: Adobe Illustrator 13.0.2, SVG Export Plug-In . SVG Version: 6.00 Build 14948)  -->
<!DOCTYPE svg PUBLIC "-//W3C//DTD SVG 1.1//EN" "http://www.w3.org/Graphics/SVG/1.1/DTD/svg11.dtd">
<svg version="1.1" id="Layer_1" xmlns="http://www.w3.org/2000/svg" xmlns:xlink="http://www.w3.org/1999/xlink" x="0px" y="0px"
	 width="36px" height="36px" viewBox="0 0 36 36" enable-background="new 0 0 36 36" xml:space="preserve">
<g>
	
		<linearGradient id="SVGID_1_" gradientUnits="userSpaceOnUse" x1="-1496.0088" y1="-2299.8516" x2="-1462.4287" y2="-2299.8516" gradientTransform="matrix(-1 0 0 -1 -1461.2188 -2281.8467)">
		<stop  offset="0" style="stop-color:#FFFFFF"/>
		<stop  offset="0.1383" style="stop-color:#FAFAFA"/>
		<stop  offset="0.3118" style="stop-color:#EAEAEA"/>
		<stop  offset="0.5042" style="stop-color:#D1D1D1"/>
		<stop  offset="0.7101" style="stop-color:#ADADAD"/>
		<stop  offset="0.9247" style="stop-color:#7F7F7F"/>
		<stop  offset="1" style="stop-color:#6E6E6E"/>
	</linearGradient>
	<path fill="url(#SVGID_1_)" d="M29.05,0.84c3.15,0,5.74,2.58,5.74,5.74v22.85c0,3.15-2.58,5.74-5.74,5.74H6.95
		c-3.15,0-5.74-2.58-5.74-5.74V6.58c0-3.15,2.58-5.74,5.74-5.74H29.05z"/>
	<g>
		<polygon points="15.76,32.55 15,31.75 14.84,31.59 9.48,25.91 9.29,25.72 9.19,25.41 8.39,21.85 8.32,21.53 8.43,21.18 
			11.45,13.89 11.53,13.69 11.7,13.54 21.24,4.74 21.37,4.62 22.02,4.01 22.7,4.6 22.83,4.71 28.72,9.85 28.79,9.91 29.19,10.25 
			29.13,10.77 29.12,10.87 28.48,17.36 28.45,17.68 28.24,17.99 16.62,31.54 16.48,31.71 15.76,32.55 		"/>
		<polygon fill="#FFFFFF" points="15.72,31.06 15.56,30.9 10.2,25.23 10.17,25.19 10.15,25.13 9.37,21.63 9.35,21.57 9.38,21.51 
			12.37,14.27 21.91,5.47 22.05,5.35 22.18,5.47 28.06,10.6 28.14,10.67 28.13,10.77 27.49,17.27 27.48,17.33 27.44,17.38 
			15.86,30.89 15.72,31.06 		"/>
		<g>
			<polyline fill="#808080" points="15.7,29.68 26.58,16.94 27.14,11.04 18.32,19.86 15.45,26.83 15.7,29.68 			"/>
			<polygon fill="#B3B3B3" points="27.14,11.04 18.18,20 13.09,14.9 22.05,6.69 			"/>
			<polygon fill="#F2F2F2" points="18.32,19.86 15.45,26.83 10.36,21.73 13.23,14.76 			"/>
		</g>
	</g>
</g>
</svg>
