<?xml version="1.0" encoding="utf-8"?>
<!-- Generator: Adobe Illustrator 13.0.2, SVG Export Plug-In . SVG Version: 6.00 Build 14948)  -->
<!DOCTYPE svg PUBLIC "-//W3C//DTD SVG 1.1//EN" "http://www.w3.org/Graphics/SVG/1.1/DTD/svg11.dtd">
<svg version="1.1" id="Layer_1" xmlns="http://www.w3.org/2000/svg" xmlns:xlink="http://www.w3.org/1999/xlink" x="0px" y="0px"
	 width="36px" height="36px" viewBox="0 0 36 36" enable-background="new 0 0 36 36" xml:space="preserve">
<linearGradient id="SVGID_1_" gradientUnits="userSpaceOnUse" x1="-1176.5088" y1="1963.8516" x2="-1142.9287" y2="1963.8516" gradientTransform="matrix(-1 0 0 1 -1141.7188 -1945.8467)">
	<stop  offset="0" style="stop-color:#FFFFFF"/>
	<stop  offset="0.1383" style="stop-color:#FAFAFA"/>
	<stop  offset="0.3118" style="stop-color:#EAEAEA"/>
	<stop  offset="0.5042" style="stop-color:#D1D1D1"/>
	<stop  offset="0.7101" style="stop-color:#ADADAD"/>
	<stop  offset="0.9247" style="stop-color:#7F7F7F"/>
	<stop  offset="1" style="stop-color:#6E6E6E"/>
</linearGradient>
<path fill="url(#SVGID_1_)" d="M29.05,0.84c3.15,0,5.74,2.58,5.74,5.74v22.85c0,3.15-2.58,5.74-5.74,5.74H6.95
	c-3.15,0-5.74-2.58-5.74-5.74V6.58c0-3.15,2.58-5.74,5.74-5.74H29.05z"/>
<g>
	<polygon fill="#969595" points="28.66,11.73 28.66,28.91 9.32,28.91 9.32,6.36 23.29,6.36 	"/>
	<path d="M8.82,29.41V5.86h14.67l5.52,5.51l-0.35,0.35l0.35-0.35l0.15,0.15v17.89H8.82L8.82,29.41z M9.82,28.41h18.33V11.93
		l-5.08-5.07H9.82V28.41L9.82,28.41z"/>
	
		<linearGradient id="SVGID_2_" gradientUnits="userSpaceOnUse" x1="366.6768" y1="-1150.8223" x2="379.7794" y2="-1172.007" gradientTransform="matrix(1 0 0 -1 -355.5 -1143)">
		<stop  offset="0" style="stop-color:#FFFFFF"/>
		<stop  offset="1" style="stop-color:#000000"/>
	</linearGradient>
	<polygon fill="url(#SVGID_2_)" points="21.57,7.97 10.94,7.97 10.94,27.3 27.04,27.3 27.04,13.61 21.57,13.61 	"/>
	<path fill="#FFFFFF" d="M27.85,12.26V28.1H10.13V7.16h12.7L27.85,12.26z M22.38,7.97H10.94V27.3h16.11V12.8h-4.67V7.97L22.38,7.97z
		"/>
	
		<linearGradient id="SVGID_3_" gradientUnits="userSpaceOnUse" x1="366.5293" y1="-1155.1904" x2="377.0293" y2="-1155.1904" gradientTransform="matrix(1 0 0 -1 -355.5 -1143)">
		<stop  offset="0" style="stop-color:#E6E6E6"/>
		<stop  offset="0.2065" style="stop-color:#E2E2E2"/>
		<stop  offset="0.37" style="stop-color:#D8D8D8"/>
		<stop  offset="0.5187" style="stop-color:#C8C8C8"/>
		<stop  offset="0.6587" style="stop-color:#B0B0B0"/>
		<stop  offset="0.7925" style="stop-color:#929292"/>
		<stop  offset="0.92" style="stop-color:#6D6D6D"/>
		<stop  offset="1" style="stop-color:#525252"/>
	</linearGradient>
	<path fill="url(#SVGID_3_)" d="M11.03,16.45c1.73-2.1,5.08-5.11,10.5-6.14V7.93h-10.5V16.45z"/>
</g>
</svg>
