<?xml version="1.0" encoding="utf-8"?>
<!-- Generator: Adobe Illustrator 15.0.0, SVG Export Plug-In . SVG Version: 6.00 Build 0)  -->
<!DOCTYPE svg PUBLIC "-//W3C//DTD SVG 1.1//EN" "http://www.w3.org/Graphics/SVG/1.1/DTD/svg11.dtd">
<svg version="1.1" id="Layer_1" xmlns="http://www.w3.org/2000/svg" xmlns:xlink="http://www.w3.org/1999/xlink" x="0px" y="0px"
	 width="36px" height="36px" viewBox="0 0 36 36" enable-background="new 0 0 36 36" xml:space="preserve">
<linearGradient id="SVGID_1_" gradientUnits="userSpaceOnUse" x1="-1415.9688" y1="2334.6367" x2="-1382.3887" y2="2334.6367" gradientTransform="matrix(-1 0 0 1 -1381.1787 -2316.6318)">
	<stop  offset="0" style="stop-color:#FFFFFF"/>
	<stop  offset="0.1383" style="stop-color:#FAFAFA"/>
	<stop  offset="0.3118" style="stop-color:#EAEAEA"/>
	<stop  offset="0.5042" style="stop-color:#D1D1D1"/>
	<stop  offset="0.7101" style="stop-color:#ADADAD"/>
	<stop  offset="0.9247" style="stop-color:#7F7F7F"/>
	<stop  offset="1" style="stop-color:#6E6E6E"/>
</linearGradient>
<path fill="url(#SVGID_1_)" d="M29.05,0.84c3.15,0,5.74,2.58,5.74,5.74v22.85c0,3.15-2.58,5.74-5.74,5.74H6.95
	c-3.15,0-5.74-2.58-5.74-5.74V6.58c0-3.15,2.58-5.74,5.74-5.74H29.05z"/>
<rect x="9.438" y="13.11" width="17.674" height="6.563"/>
<g>
	<g>
		<path fill="#FFFFFF" d="M9.055,25.433c-0.167,0-0.322-0.066-0.435-0.179c-0.665-0.333-1.318-1.109-1.318-1.851v-9.214
			c0-0.937,0.75-1.699,1.672-1.699h0.391c0.292,0,0.438,0,8.113,6.272l0.527,0.004l0.517-0.004c7.678-6.272,7.815-6.272,8.113-6.272
			h0.391c0.922,0,1.673,0.762,1.673,1.699v9.214c0,0.76-0.687,1.557-1.368,1.875c-0.103,0.096-0.235,0.154-0.385,0.154H9.055z"/>
		<path d="M27.025,13.11c0.581,0,1.053,0.483,1.053,1.079v9.214c0,0.53-0.631,1.227-1.18,1.377l0.047,0.032h-0.249H9.303H9.055
			l0.046-0.032c-0.548-0.15-1.179-0.847-1.179-1.377v-9.214c0-0.596,0.472-1.079,1.052-1.079c0,0,0.139,0,0.391,0
			c0.229,0,7.74,6.148,7.89,6.271L18,19.387l0.745-0.006c0.15-0.122,7.661-6.271,7.89-6.271C26.887,13.11,27.025,13.11,27.025,13.11
			 M27.025,11.87h-0.391c-0.576,0-0.655,0-8.336,6.274l-0.309,0.002l-0.289-0.002c-7.679-6.275-7.771-6.274-8.336-6.274H8.974
			c-1.264,0-2.292,1.041-2.292,2.319v9.214c0,0.978,0.758,1.916,1.581,2.363c0.217,0.181,0.495,0.286,0.792,0.286h0.249h17.393
			h0.249c0.297,0,0.575-0.105,0.793-0.286c0.822-0.447,1.58-1.387,1.58-2.363v-9.214C29.318,12.911,28.29,11.87,27.025,11.87
			L27.025,11.87z"/>
	</g>
	<g>
		<path fill="#FFFFFF" d="M17.768,17.124L17.563,17.1c-0.362-0.061-0.567-0.122-0.567-0.122c-0.067-0.02-0.131-0.051-0.188-0.092
			c-0.071-0.037-0.146-0.084-0.187-0.127l-0.112-0.116l-5.387-4.262c-1.92-1.516-1.92-1.942-1.92-2.171
			c0-0.652,0.587-1.126,1.396-1.126h14.805c0.81,0,1.396,0.474,1.396,1.126c0,0.229,0,0.655-1.922,2.172L19.429,16.7l-0.049,0.059
			c-0.062,0.065-0.137,0.116-0.221,0.148l-0.001-0.002c-0.052,0.031-0.108,0.06-0.153,0.073c0,0-0.205,0.061-0.476,0.107
			c-0.159,0.024-0.224,0.031-0.296,0.037c-0.046,0.007-0.091,0.013-0.138,0.014c-0.005,0-0.019,0-0.024,0
			C18.055,17.137,17.79,17.126,17.768,17.124z"/>
		<path d="M25.402,9.704c0.354,0,0.776,0.152,0.776,0.506c0,0.355-1.686,1.686-1.686,1.686l-5.449,4.318l-0.111,0.116
			c0,0-0.027,0.011-0.066,0.025l-0.036,0.028c0,0-0.175,0.051-0.406,0.091c-0.025,0.004-0.051,0.008-0.077,0.012
			c-0.053,0.008-0.104,0.013-0.162,0.018c-0.036,0.003-0.071,0.011-0.107,0.012c-0.002,0-0.005,0-0.008,0
			c-0.024,0-0.047-0.003-0.071-0.003s-0.047,0.003-0.071,0.003c-0.002,0-0.005,0-0.008,0c-0.036-0.001-0.071-0.009-0.107-0.012
			c-0.058-0.005-0.109-0.01-0.162-0.018c-0.026-0.004-0.051-0.008-0.076-0.012c-0.231-0.04-0.406-0.091-0.406-0.091l-0.036-0.028
			c-0.039-0.015-0.066-0.025-0.066-0.025l-0.112-0.116l-5.449-4.318c0,0-1.685-1.331-1.685-1.686c0-0.354,0.422-0.506,0.775-0.506
			h0.112h14.582H25.402 M25.402,8.464h-0.111H10.709h-0.112c-1.149,0-2.015,0.751-2.015,1.746c0,0.426,0,0.956,2.156,2.659
			l5.382,4.265l0.054,0.056c0.117,0.122,0.259,0.219,0.415,0.284c0.078,0.042,0.159,0.078,0.232,0.1c0,0,0.235,0.07,0.546,0.123
			c0.007,0.001,0.056,0.009,0.062,0.01c0.112,0.017,0.179,0.023,0.252,0.03c0.066,0.01,0.136,0.017,0.207,0.019
			c0.007,0,0.015,0,0.023,0c0.024,0,0.054,0,0.083-0.001c0.026,0.001,0.051,0.002,0.077,0.002c0.015,0,0.039,0,0.054-0.001
			c0.058-0.001,0.127-0.009,0.197-0.019c0.046-0.003,0.125-0.011,0.206-0.023l0.108-0.018c0.309-0.053,0.543-0.123,0.543-0.123
			c0.095-0.028,0.188-0.068,0.274-0.118c0.14-0.065,0.268-0.156,0.375-0.268l0.053-0.055l5.383-4.266
			c2.155-1.701,2.155-2.231,2.155-2.657C27.419,9.215,26.552,8.464,25.402,8.464L25.402,8.464z"/>
	</g>
</g>
</svg>
